<svg xmlns="http://www.w3.org/2000/svg" width="1400" height="820" viewBox="0 0 1400 820">
<style>
text{font-family:Arial, sans-serif; fill:#222}
.title{font-size:16px; font-weight:700}
.tick{font-size:11px; fill:#666}
.main{font-size:24px; font-weight:700}
</style>
<text x="45" y="42" class="main">Scenario comparison over time (10-step moving average)</text>
<line x1="920" y1="38" x2="950" y2="38" stroke="#4C78A8" stroke-width="4"/>
<text x="958" y="42" class="tick">Baseline</text>
<line x1="1065" y1="38" x2="1095" y2="38" stroke="#F58518" stroke-width="4"/>
<text x="1103" y="42" class="tick">Demand-only</text>
<line x1="1210" y1="38" x2="1240" y2="38" stroke="#54A24B" stroke-width="4"/>
<text x="1248" y="42" class="tick">Supply-adjusted</text>
<text x="45" y="108" class="title">Average rider income</text>
<rect x="93" y="120" width="370" height="265" fill="none" stroke="#cccccc"/>
<line x1="93" y1="385.0" x2="463" y2="385.0" stroke="#eeeeee"/>
<text x="85" y="389.0" text-anchor="end" class="tick">4.50</text>
<line x1="93" y1="296.7" x2="463" y2="296.7" stroke="#eeeeee"/>
<text x="85" y="300.7" text-anchor="end" class="tick">5.16</text>
<line x1="93" y1="208.3" x2="463" y2="208.3" stroke="#eeeeee"/>
<text x="85" y="212.3" text-anchor="end" class="tick">5.82</text>
<line x1="93" y1="120.0" x2="463" y2="120.0" stroke="#eeeeee"/>
<text x="85" y="124.0" text-anchor="end" class="tick">6.48</text>
<text x="93" y="409" class="tick">0</text>
<text x="463" y="409" text-anchor="end" class="tick">143</text>
<polyline points="93.0,366.7 95.6,290.8 98.2,288.6 100.8,263.3 103.3,251.4 105.9,230.0 108.5,220.6 111.1,232.2 113.7,236.1 116.3,230.7 118.9,215.1 121.5,211.3 124.0,201.6 126.6,193.7 129.2,193.5 131.8,206.4 134.4,210.3 137.0,193.2 139.6,183.4 142.2,183.4 144.7,193.3 147.3,203.7 149.9,203.6 152.5,213.1 155.1,212.9 157.7,213.0 160.3,214.3 162.9,229.5 165.4,239.1 168.0,240.1 170.6,235.0 173.2,239.5 175.8,247.9 178.4,245.9 181.0,250.4 183.6,255.2 186.1,255.5 188.7,249.5 191.3,240.9 193.9,248.7 196.5,244.8 199.1,232.1 201.7,233.4 204.3,239.5 206.8,246.8 209.4,249.5 212.0,248.4 214.6,253.6 217.2,256.4 219.8,250.3 222.4,248.8 225.0,247.5 227.5,238.3 230.1,236.2 232.7,227.0 235.3,217.0 237.9,216.2 240.5,208.9 243.1,207.7 245.7,213.1 248.2,221.5 250.8,228.6 253.4,229.5 256.0,222.0 258.6,217.2 261.2,212.5 263.8,205.5 266.4,209.7 268.9,216.8 271.5,219.3 274.1,228.7 276.7,225.8 279.3,225.4 281.9,229.4 284.5,232.8 287.1,228.6 289.6,235.2 292.2,231.3 294.8,214.1 297.4,209.1 300.0,197.7 302.6,194.3 305.2,195.6 307.8,195.4 310.3,193.3 312.9,204.4 315.5,207.0 318.1,204.6 320.7,225.3 323.3,212.1 325.9,204.9 328.5,203.5 331.0,206.0 333.6,210.3 336.2,207.6 338.8,200.8 341.4,205.4 344.0,205.8 346.6,193.1 349.2,196.6 351.7,192.7 354.3,192.3 356.9,194.3 359.5,187.6 362.1,194.7 364.7,199.2 367.3,188.2 369.9,194.4 372.4,196.3 375.0,200.0 377.6,208.0 380.2,212.4 382.8,204.6 385.4,208.8 388.0,204.6 390.6,199.0 393.1,198.5 395.7,191.3 398.3,198.5 400.9,206.4 403.5,210.8 406.1,203.2 408.7,217.8 411.3,223.1 413.8,227.3 416.4,231.8 419.0,240.9 421.6,240.1 424.2,233.6 426.8,224.0 429.4,224.2 432.0,223.2 434.5,212.1 437.1,205.8 439.7,200.8 442.3,196.7 444.9,186.4 447.5,186.5 450.1,177.8 452.7,171.0 455.2,156.6 457.8,158.5 460.4,158.8 463.0,154.9" fill="none" stroke="#4C78A8" stroke-width="2.2"/>
<polyline points="93.0,362.0 95.6,291.5 98.2,239.6 100.8,241.3 103.3,228.0 105.9,228.1 108.5,222.0 111.1,223.4 113.7,206.8 116.3,207.1 118.9,186.5 121.5,189.6 124.0,190.3 126.6,181.7 129.2,186.6 131.8,183.3 134.4,172.7 137.0,169.1 139.6,182.8 142.2,176.9 144.7,178.5 147.3,169.0 149.9,178.1 152.5,185.1 155.1,195.6 157.7,200.7 160.3,218.7 162.9,214.2 165.4,213.7 168.0,214.6 170.6,224.3 173.2,219.5 175.8,209.6 178.4,206.4 181.0,193.1 183.6,177.6 186.1,166.5 188.7,169.4 191.3,164.4 193.9,163.5 196.5,155.9 199.1,155.4 201.7,166.9 204.3,172.3 206.8,179.2 209.4,188.9 212.0,188.2 214.6,185.9 217.2,189.2 219.8,182.3 222.4,183.3 225.0,191.5 227.5,184.1 230.1,182.1 232.7,178.8 235.3,184.4 237.9,198.4 240.5,200.7 243.1,204.4 245.7,204.3 248.2,200.0 250.8,196.1 253.4,201.9 256.0,196.5 258.6,200.9 261.2,204.2 263.8,197.5 266.4,192.1 268.9,196.4 271.5,211.9 274.1,209.8 276.7,202.7 279.3,186.3 281.9,187.2 284.5,188.8 287.1,185.6 289.6,179.5 292.2,193.5 294.8,195.2 297.4,194.5 300.0,199.5 302.6,208.3 305.2,225.4 307.8,230.3 310.3,220.9 312.9,208.5 315.5,207.4 318.1,199.7 320.7,191.7 323.3,187.6 325.9,192.3 328.5,190.9 331.0,186.4 333.6,178.2 336.2,181.8 338.8,178.8 341.4,183.3 344.0,174.7 346.6,164.5 349.2,164.9 351.7,161.0 354.3,158.6 356.9,157.0 359.5,159.8 362.1,165.0 364.7,173.1 367.3,176.8 369.9,198.2 372.4,218.3 375.0,219.7 377.6,222.7 380.2,216.6 382.8,205.5 385.4,201.0 388.0,193.4 390.6,196.6 393.1,191.2 395.7,178.6 398.3,165.9 400.9,166.7 403.5,168.6 406.1,172.5 408.7,179.6 411.3,178.7 413.8,173.2 416.4,170.8 419.0,172.0 421.6,178.2 424.2,186.4 426.8,192.3 429.4,191.4 432.0,196.8 434.5,208.4 437.1,223.2 439.7,228.7 442.3,228.0 444.9,229.5 447.5,221.1 450.1,225.6 452.7,221.5 455.2,206.1 457.8,206.5 460.4,202.7 463.0,192.1" fill="none" stroke="#F58518" stroke-width="2.2"/>
<polyline points="93.0,362.0 95.6,267.3 98.2,238.5 100.8,234.4 103.3,231.6 105.9,221.9 108.5,222.9 111.1,221.3 113.7,211.1 116.3,200.9 118.9,181.2 121.5,181.5 124.0,175.1 126.6,165.9 129.2,167.6 131.8,160.6 134.4,153.9 137.0,149.1 139.6,152.1 142.2,158.9 144.7,157.8 147.3,152.6 149.9,152.8 152.5,156.3 155.1,159.0 157.7,170.3 160.3,173.1 162.9,173.2 165.4,171.5 168.0,171.9 170.6,178.7 173.2,186.6 175.8,191.1 178.4,184.5 181.0,179.0 183.6,177.6 186.1,186.9 188.7,195.0 191.3,190.0 193.9,194.5 196.5,192.3 199.1,196.8 201.7,202.9 204.3,202.9 206.8,197.4 209.4,196.2 212.0,190.6 214.6,180.6 217.2,183.8 219.8,178.0 222.4,166.8 225.0,162.1 227.5,162.9 230.1,168.1 232.7,166.4 235.3,162.8 237.9,153.4 240.5,157.9 243.1,160.0 245.7,160.6 248.2,166.9 250.8,165.3 253.4,159.8 256.0,167.6 258.6,175.7 261.2,176.2 263.8,175.9 266.4,190.9 268.9,196.0 271.5,194.3 274.1,197.4 276.7,205.8 279.3,200.9 281.9,183.3 284.5,177.0 287.1,177.8 289.6,185.4 292.2,177.4 294.8,178.9 297.4,179.0 300.0,176.5 302.6,167.6 305.2,166.7 307.8,186.0 310.3,182.9 312.9,186.2 315.5,184.3 318.1,181.1 320.7,187.2 323.3,195.4 325.9,195.1 328.5,197.2 331.0,199.7 333.6,197.3 336.2,201.1 338.8,197.2 341.4,191.4 344.0,185.2 346.6,172.5 349.2,177.2 351.7,176.8 354.3,179.8 356.9,184.5 359.5,195.5 362.1,206.3 364.7,209.5 367.3,222.0 369.9,228.5 372.4,236.6 375.0,225.0 377.6,235.4 380.2,233.2 382.8,231.2 385.4,213.1 388.0,200.5 390.6,197.0 393.1,188.0 395.7,188.7 398.3,187.5 400.9,185.2 403.5,179.4 406.1,168.2 408.7,167.3 411.3,173.5 413.8,174.1 416.4,174.6 419.0,182.7 421.6,180.8 424.2,167.3 426.8,167.0 429.4,158.0 432.0,171.9 434.5,173.5 437.1,168.4 439.7,166.5 442.3,162.6 444.9,151.8 447.5,152.6 450.1,156.7 452.7,146.1 455.2,154.0 457.8,141.0 460.4,145.3 463.0,138.3" fill="none" stroke="#54A24B" stroke-width="2.2"/>
<text x="510" y="108" class="title">Idle rate</text>
<rect x="558" y="120" width="370" height="265" fill="none" stroke="#cccccc"/>
<line x1="558" y1="385.0" x2="928" y2="385.0" stroke="#eeeeee"/>
<text x="550" y="389.0" text-anchor="end" class="tick">0.29</text>
<line x1="558" y1="296.7" x2="928" y2="296.7" stroke="#eeeeee"/>
<text x="550" y="300.7" text-anchor="end" class="tick">0.36</text>
<line x1="558" y1="208.3" x2="928" y2="208.3" stroke="#eeeeee"/>
<text x="550" y="212.3" text-anchor="end" class="tick">0.43</text>
<line x1="558" y1="120.0" x2="928" y2="120.0" stroke="#eeeeee"/>
<text x="550" y="124.0" text-anchor="end" class="tick">0.50</text>
<text x="558" y="409" class="tick">0</text>
<text x="928" y="409" text-anchor="end" class="tick">143</text>
<polyline points="558.0,138.3 560.6,210.5 563.2,215.7 565.8,241.8 568.3,253.8 570.9,274.3 573.5,283.5 576.1,273.2 578.7,269.4 581.3,274.5 583.9,290.2 586.5,293.9 589.0,302.1 591.6,309.0 594.2,309.0 596.8,297.7 599.4,293.9 602.0,309.6 604.6,318.4 607.2,318.4 609.7,309.0 612.3,300.2 614.9,300.2 617.5,291.4 620.1,290.8 622.7,289.5 625.3,288.3 627.9,273.8 630.4,265.1 633.0,265.1 635.6,270.7 638.2,266.3 640.8,260.7 643.4,262.5 646.0,259.4 648.6,255.6 651.1,255.0 653.7,261.3 656.3,270.1 658.9,261.3 661.5,263.8 664.1,273.8 666.7,271.3 669.3,265.7 671.8,258.1 674.4,255.0 677.0,256.3 679.6,250.6 682.2,247.5 684.8,254.4 687.4,256.3 690.0,258.8 692.5,266.9 695.1,268.8 697.7,277.6 700.3,287.0 702.9,288.3 705.5,294.5 708.1,295.2 710.7,289.5 713.2,281.4 715.8,275.1 718.4,273.8 721.0,280.1 723.6,284.5 726.2,288.9 728.8,295.2 731.4,292.0 733.9,286.4 736.5,283.9 739.1,275.7 741.7,278.2 744.3,279.5 746.9,276.3 749.5,273.2 752.1,276.3 754.6,269.4 757.2,272.6 759.8,288.3 762.4,293.9 765.0,304.0 767.6,307.1 770.2,305.8 772.8,305.2 775.3,307.1 777.9,297.7 780.5,295.2 783.1,298.3 785.7,278.9 788.3,290.2 790.9,297.1 793.5,298.3 796.0,296.4 798.6,293.3 801.2,295.8 803.8,301.5 806.4,297.1 809.0,295.8 811.6,307.7 814.2,304.6 816.7,308.4 819.3,309.0 821.9,306.5 824.5,312.8 827.1,305.8 829.7,302.1 832.3,312.8 834.9,307.1 837.4,305.8 840.0,302.1 842.6,294.5 845.2,290.2 847.8,297.7 850.4,293.9 853.0,297.7 855.6,303.3 858.1,304.0 860.7,310.9 863.3,302.7 865.9,295.8 868.5,291.4 871.1,298.9 873.7,285.1 876.3,280.1 878.8,277.0 881.4,273.2 884.0,264.4 886.6,265.1 889.2,272.0 891.8,280.1 894.4,279.5 897.0,280.1 899.5,290.2 902.1,295.8 904.7,300.8 907.3,304.6 909.9,314.0 912.5,314.0 915.1,321.5 917.7,328.4 920.2,342.2 922.8,339.7 925.4,339.1 928.0,342.9" fill="none" stroke="#4C78A8" stroke-width="2.2"/>
<polyline points="558.0,150.8 560.6,219.9 563.2,270.1 565.8,270.1 568.3,281.4 570.9,282.6 573.5,289.8 576.1,288.9 578.7,303.5 581.3,303.3 583.9,323.4 586.5,320.3 589.0,320.3 591.6,328.4 594.2,324.7 596.8,327.2 599.4,336.0 602.0,339.7 604.6,327.8 607.2,333.5 609.7,331.6 612.3,341.0 614.9,331.6 617.5,324.0 620.1,313.4 622.7,309.0 625.3,292.7 627.9,295.8 630.4,295.8 633.0,294.5 635.6,285.8 638.2,290.8 640.8,300.8 643.4,304.0 646.0,317.1 648.6,331.6 651.1,341.6 653.7,339.1 656.3,344.8 658.9,346.6 661.5,352.9 664.1,352.9 666.7,341.0 669.3,336.6 671.8,329.7 674.4,320.9 677.0,321.5 679.6,324.0 682.2,320.3 684.8,325.9 687.4,325.9 690.0,317.1 692.5,325.3 695.1,326.6 697.7,329.7 700.3,324.0 702.9,310.9 705.5,308.4 708.1,304.6 710.7,305.2 713.2,309.0 715.8,313.4 718.4,307.1 721.0,312.8 723.6,309.6 726.2,307.1 728.8,314.0 731.4,319.7 733.9,315.9 736.5,300.8 739.1,302.7 741.7,309.0 744.3,325.3 746.9,324.0 749.5,322.2 752.1,324.7 754.6,330.3 757.2,316.5 759.8,314.0 762.4,314.6 765.0,310.9 767.6,302.7 770.2,285.8 772.8,281.4 775.3,290.2 777.9,302.1 780.5,302.1 783.1,309.6 785.7,318.4 788.3,322.2 790.9,316.5 793.5,317.8 796.0,322.2 798.6,329.7 801.2,325.9 803.8,328.4 806.4,324.0 809.0,331.6 811.6,340.4 814.2,340.4 816.7,344.1 819.3,346.6 821.9,347.9 824.5,345.4 827.1,340.4 829.7,332.8 832.3,330.3 834.9,310.2 837.4,290.8 840.0,288.9 842.6,287.0 845.2,292.7 847.8,303.3 850.4,307.7 853.0,315.3 855.6,311.5 858.1,315.9 860.7,327.8 863.3,341.0 865.9,340.4 868.5,337.9 871.1,334.7 873.7,328.4 876.3,329.7 878.8,335.3 881.4,337.9 884.0,337.2 886.6,331.6 889.2,323.4 891.8,317.8 894.4,319.7 897.0,314.0 899.5,302.7 902.1,288.9 904.7,282.6 907.3,283.3 909.9,281.4 912.5,288.9 915.1,283.9 917.7,287.0 920.2,300.8 922.8,300.2 925.4,303.3 928.0,312.8" fill="none" stroke="#F58518" stroke-width="2.2"/>
<polyline points="558.0,150.8 560.6,241.8 563.2,272.2 565.8,277.9 568.3,281.4 570.9,289.9 573.5,289.8 576.1,290.5 578.7,298.7 581.3,308.4 583.9,327.8 586.5,327.8 589.0,334.1 591.6,342.2 594.2,340.4 596.8,347.9 599.4,353.5 602.0,359.2 604.6,357.3 607.2,351.0 609.7,352.3 612.3,356.7 614.9,356.1 617.5,352.3 620.1,350.4 622.7,339.7 625.3,337.2 627.9,336.6 630.4,338.5 633.0,337.9 635.6,331.0 638.2,324.7 640.8,320.9 643.4,327.8 646.0,332.2 648.6,332.8 651.1,324.7 653.7,317.1 656.3,322.2 658.9,319.0 661.5,321.5 664.1,317.1 666.7,310.9 669.3,310.2 671.8,315.3 674.4,316.5 677.0,321.5 679.6,331.6 682.2,329.1 684.8,333.5 687.4,343.5 690.0,347.9 692.5,347.3 695.1,342.2 697.7,343.5 700.3,347.3 702.9,355.4 705.5,351.0 708.1,347.9 710.7,347.3 713.2,342.2 715.8,342.9 718.4,347.3 721.0,341.0 723.6,334.1 726.2,332.8 728.8,333.5 731.4,318.4 733.9,314.0 736.5,316.5 739.1,313.4 741.7,306.5 744.3,312.1 746.9,328.4 749.5,334.7 752.1,334.1 754.6,326.6 757.2,334.1 759.8,332.2 762.4,332.2 765.0,334.1 767.6,342.2 770.2,342.2 772.8,324.0 775.3,326.6 777.9,324.0 780.5,326.6 783.1,329.7 785.7,324.7 788.3,315.9 790.9,315.9 793.5,313.4 796.0,310.9 798.6,312.8 801.2,309.6 803.8,314.0 806.4,319.7 809.0,325.3 811.6,336.0 814.2,332.2 816.7,333.5 819.3,330.3 821.9,327.2 824.5,316.5 827.1,305.8 829.7,301.5 832.3,288.9 834.9,283.9 837.4,277.6 840.0,288.3 842.6,278.9 845.2,282.0 847.8,283.9 850.4,300.8 853.0,312.8 855.6,315.9 858.1,324.0 860.7,322.8 863.3,322.8 865.9,325.3 868.5,329.1 871.1,339.1 873.7,339.7 876.3,334.1 878.8,333.5 881.4,332.8 884.0,325.9 886.6,328.4 889.2,341.6 891.8,341.0 894.4,349.8 897.0,336.0 899.5,334.1 902.1,339.1 904.7,340.4 907.3,344.8 909.9,354.2 912.5,352.9 915.1,349.2 917.7,359.2 920.2,352.3 922.8,364.8 925.4,359.8 928.0,366.7" fill="none" stroke="#54A24B" stroke-width="2.2"/>
<text x="975" y="108" class="title">Matching rate</text>
<rect x="1023" y="120" width="370" height="265" fill="none" stroke="#cccccc"/>
<line x1="1023" y1="385.0" x2="1393" y2="385.0" stroke="#eeeeee"/>
<text x="1015" y="389.0" text-anchor="end" class="tick">0.52</text>
<line x1="1023" y1="296.7" x2="1393" y2="296.7" stroke="#eeeeee"/>
<text x="1015" y="300.7" text-anchor="end" class="tick">0.58</text>
<line x1="1023" y1="208.3" x2="1393" y2="208.3" stroke="#eeeeee"/>
<text x="1015" y="212.3" text-anchor="end" class="tick">0.65</text>
<line x1="1023" y1="120.0" x2="1393" y2="120.0" stroke="#eeeeee"/>
<text x="1015" y="124.0" text-anchor="end" class="tick">0.72</text>
<text x="1023" y="409" class="tick">0</text>
<text x="1393" y="409" text-anchor="end" class="tick">143</text>
<polyline points="1023.0,157.0 1025.6,201.9 1028.2,254.6 1030.8,263.2 1033.3,259.3 1035.9,257.7 1038.5,252.5 1041.1,255.6 1043.7,255.2 1046.3,259.3 1048.9,277.6 1051.5,283.3 1054.0,282.0 1056.6,282.1 1059.2,291.8 1061.8,298.4 1064.4,308.7 1067.0,306.3 1069.6,311.8 1072.2,316.7 1074.7,317.8 1077.3,319.7 1079.9,317.2 1082.5,322.2 1085.1,320.1 1087.7,323.1 1090.3,328.9 1092.9,343.9 1095.4,354.4 1098.0,352.8 1100.6,351.0 1103.2,361.2 1105.8,366.7 1108.4,366.0 1111.0,366.6 1113.6,365.1 1116.1,360.2 1118.7,355.8 1121.3,347.6 1123.9,351.4 1126.5,350.6 1129.1,335.4 1131.7,335.6 1134.3,332.5 1136.8,331.1 1139.4,326.6 1142.0,314.2 1144.6,306.3 1147.2,302.8 1149.8,300.5 1152.4,306.2 1155.0,316.1 1157.5,311.0 1160.1,317.2 1162.7,323.3 1165.3,327.4 1167.9,330.0 1170.5,331.5 1173.1,334.1 1175.7,327.2 1178.2,316.7 1180.8,310.9 1183.4,305.1 1186.0,301.0 1188.6,299.5 1191.2,290.3 1193.8,290.4 1196.4,291.3 1198.9,288.3 1201.5,291.8 1204.1,300.8 1206.7,301.5 1209.3,308.3 1211.9,312.6 1214.5,314.2 1217.1,318.3 1219.6,322.4 1222.2,325.9 1224.8,323.8 1227.4,321.7 1230.0,321.7 1232.6,318.6 1235.2,308.6 1237.8,296.5 1240.3,288.3 1242.9,293.8 1245.5,297.4 1248.1,295.8 1250.7,310.1 1253.3,309.6 1255.9,304.0 1258.5,302.5 1261.0,308.3 1263.6,312.7 1266.2,312.0 1268.8,306.5 1271.4,305.8 1274.0,306.3 1276.6,302.9 1279.2,307.8 1281.7,302.1 1284.3,299.2 1286.9,299.1 1289.5,299.1 1292.1,303.7 1294.7,306.7 1297.3,302.7 1299.9,302.4 1302.4,295.8 1305.0,293.5 1307.6,303.4 1310.2,304.4 1312.8,302.0 1315.4,298.7 1318.0,287.1 1320.6,283.4 1323.1,285.0 1325.7,279.9 1328.3,280.6 1330.9,279.5 1333.5,278.8 1336.1,281.5 1338.7,291.0 1341.3,299.3 1343.8,310.6 1346.4,315.6 1349.0,315.0 1351.6,315.5 1354.2,315.4 1356.8,317.9 1359.4,321.2 1362.0,323.0 1364.5,317.8 1367.1,312.3 1369.7,306.3 1372.3,307.1 1374.9,318.4 1377.5,328.5 1380.1,329.4 1382.7,327.4 1385.2,318.7 1387.8,318.3 1390.4,319.2 1393.0,315.5" fill="none" stroke="#4C78A8" stroke-width="2.2"/>
<polyline points="1023.0,138.9 1025.6,163.0 1028.2,153.7 1030.8,172.9 1033.3,192.1 1035.9,204.1 1038.5,201.4 1041.1,203.8 1043.7,204.4 1046.3,211.0 1048.9,213.6 1051.5,221.0 1054.0,230.9 1056.6,237.2 1059.2,238.0 1061.8,237.4 1064.4,241.3 1067.0,245.9 1069.6,249.8 1072.2,245.7 1074.7,250.3 1077.3,245.9 1079.9,244.4 1082.5,239.9 1085.1,238.7 1087.7,240.5 1090.3,250.3 1092.9,253.7 1095.4,255.3 1098.0,260.2 1100.6,267.0 1103.2,262.8 1105.8,269.4 1108.4,269.7 1111.0,272.8 1113.6,273.4 1116.1,265.7 1118.7,267.7 1121.3,273.2 1123.9,273.2 1126.5,267.7 1129.1,266.5 1131.7,254.9 1134.3,250.7 1136.8,244.4 1139.4,240.4 1142.0,243.8 1144.6,237.3 1147.2,236.8 1149.8,237.1 1152.4,243.3 1155.0,250.6 1157.5,257.4 1160.1,260.0 1162.7,257.4 1165.3,257.1 1167.9,262.1 1170.5,265.6 1173.1,257.7 1175.7,252.0 1178.2,249.1 1180.8,250.5 1183.4,248.8 1186.0,241.3 1188.6,241.6 1191.2,244.7 1193.8,235.3 1196.4,228.0 1198.9,228.2 1201.5,228.9 1204.1,234.1 1206.7,234.7 1209.3,232.3 1211.9,238.9 1214.5,243.8 1217.1,240.7 1219.6,238.6 1222.2,244.3 1224.8,250.8 1227.4,254.2 1230.0,249.0 1232.6,244.7 1235.2,253.2 1237.8,251.5 1240.3,251.2 1242.9,249.5 1245.5,251.1 1248.1,250.8 1250.7,243.5 1253.3,245.7 1255.9,249.1 1258.5,251.5 1261.0,251.6 1263.6,257.2 1266.2,264.2 1268.8,263.7 1271.4,265.4 1274.0,264.4 1276.6,271.3 1279.2,267.2 1281.7,259.2 1284.3,260.2 1286.9,259.0 1289.5,255.7 1292.1,245.4 1294.7,241.4 1297.3,237.2 1299.9,240.8 1302.4,241.3 1305.0,241.2 1307.6,245.3 1310.2,246.8 1312.8,245.8 1315.4,246.6 1318.0,245.8 1320.6,251.1 1323.1,251.6 1325.7,243.7 1328.3,240.5 1330.9,246.4 1333.5,257.7 1336.1,262.3 1338.7,263.5 1341.3,259.5 1343.8,261.2 1346.4,264.6 1349.0,270.7 1351.6,274.6 1354.2,274.0 1356.8,268.2 1359.4,251.0 1362.0,234.0 1364.5,229.3 1367.1,235.7 1369.7,240.1 1372.3,239.4 1374.9,235.1 1377.5,227.0 1380.1,226.6 1382.7,234.5 1385.2,238.9 1387.8,251.8 1390.4,256.0 1393.0,257.2" fill="none" stroke="#F58518" stroke-width="2.2"/>
<polyline points="1023.0,138.9 1025.6,138.3 1028.2,152.3 1030.8,169.4 1033.3,186.3 1035.9,199.0 1038.5,219.5 1041.1,225.3 1043.7,230.9 1046.3,233.6 1048.9,244.3 1051.5,255.7 1054.0,264.5 1056.6,268.5 1059.2,268.0 1061.8,263.4 1064.4,253.8 1067.0,248.1 1069.6,247.0 1072.2,247.1 1074.7,249.6 1077.3,248.4 1079.9,243.1 1082.5,237.5 1085.1,235.7 1087.7,237.9 1090.3,243.9 1092.9,251.4 1095.4,244.0 1098.0,239.9 1100.6,234.2 1103.2,237.3 1105.8,238.2 1108.4,239.1 1111.0,241.5 1113.6,240.8 1116.1,233.6 1118.7,231.7 1121.3,236.6 1123.9,240.7 1126.5,238.4 1129.1,227.9 1131.7,236.3 1134.3,239.9 1136.8,236.8 1139.4,236.7 1142.0,235.2 1144.6,227.7 1147.2,222.7 1149.8,214.3 1152.4,214.7 1155.0,218.7 1157.5,212.9 1160.1,209.7 1162.7,206.8 1165.3,205.0 1167.9,201.2 1170.5,204.8 1173.1,213.2 1175.7,219.8 1178.2,226.5 1180.8,236.6 1183.4,234.5 1186.0,235.6 1188.6,243.4 1191.2,242.6 1193.8,241.5 1196.4,244.3 1198.9,242.2 1201.5,236.3 1204.1,232.1 1206.7,225.2 1209.3,230.9 1211.9,229.1 1214.5,227.1 1217.1,227.3 1219.6,228.1 1222.2,224.4 1224.8,231.2 1227.4,242.7 1230.0,250.3 1232.6,251.5 1235.2,242.7 1237.8,247.3 1240.3,247.5 1242.9,257.5 1245.5,267.0 1248.1,270.5 1250.7,258.1 1253.3,248.9 1255.9,240.7 1258.5,247.4 1261.0,257.9 1263.6,264.2 1266.2,260.8 1268.8,253.3 1271.4,250.5 1274.0,254.6 1276.6,255.5 1279.2,264.0 1281.7,266.7 1284.3,264.5 1286.9,258.8 1289.5,254.2 1292.1,260.0 1294.7,258.8 1297.3,251.4 1299.9,244.0 1302.4,245.5 1305.0,240.8 1307.6,242.4 1310.2,237.7 1312.8,233.3 1315.4,233.4 1318.0,231.0 1320.6,234.9 1323.1,246.9 1325.7,251.5 1328.3,254.9 1330.9,257.0 1333.5,262.5 1336.1,260.4 1338.7,271.3 1341.3,273.5 1343.8,273.3 1346.4,264.6 1349.0,258.7 1351.6,251.3 1354.2,245.0 1356.8,246.6 1359.4,241.6 1362.0,251.2 1364.5,247.4 1367.1,244.4 1369.7,246.4 1372.3,247.6 1374.9,246.9 1377.5,255.0 1380.1,259.3 1382.7,255.5 1385.2,262.1 1387.8,258.5 1390.4,262.7 1393.0,260.6" fill="none" stroke="#54A24B" stroke-width="2.2"/>
<text x="45" y="483" class="title">Movement rate</text>
<rect x="93" y="495" width="370" height="265" fill="none" stroke="#cccccc"/>
<line x1="93" y1="760.0" x2="463" y2="760.0" stroke="#eeeeee"/>
<text x="85" y="764.0" text-anchor="end" class="tick">0.45</text>
<line x1="93" y1="671.7" x2="463" y2="671.7" stroke="#eeeeee"/>
<text x="85" y="675.7" text-anchor="end" class="tick">0.51</text>
<line x1="93" y1="583.3" x2="463" y2="583.3" stroke="#eeeeee"/>
<text x="85" y="587.3" text-anchor="end" class="tick">0.57</text>
<line x1="93" y1="495.0" x2="463" y2="495.0" stroke="#eeeeee"/>
<text x="85" y="499.0" text-anchor="end" class="tick">0.63</text>
<text x="93" y="784" class="tick">0</text>
<text x="463" y="784" text-anchor="end" class="tick">143</text>
<polyline points="93.0,741.7 95.6,727.5 98.2,692.1 100.8,663.7 103.3,655.2 105.9,649.5 108.5,643.4 111.1,638.0 113.7,640.0 116.3,638.9 118.9,626.8 121.5,624.7 124.0,634.6 126.6,640.3 129.2,641.7 131.8,633.9 134.4,634.6 137.0,638.1 139.6,642.4 142.2,642.4 144.7,644.5 147.3,633.9 149.9,634.6 152.5,633.2 155.1,642.4 157.7,655.9 160.3,656.6 162.9,659.4 165.4,656.6 168.0,645.9 170.6,636.7 173.2,638.1 175.8,613.3 178.4,614.0 181.0,602.0 183.6,593.4 186.1,597.0 188.7,589.9 191.3,580.7 193.9,598.4 196.5,611.2 199.1,631.8 201.7,645.9 204.3,645.9 206.8,653.8 209.4,660.1 212.0,658.0 214.6,667.2 217.2,672.9 219.8,659.4 222.4,653.8 225.0,639.6 227.5,644.5 230.1,644.5 232.7,642.4 235.3,641.7 237.9,636.7 240.5,642.4 243.1,648.1 245.7,654.5 248.2,658.0 250.8,654.5 253.4,659.4 256.0,667.2 258.6,668.6 261.2,667.9 263.8,671.5 266.4,662.3 268.9,651.6 271.5,653.8 274.1,646.7 276.7,648.1 279.3,638.1 281.9,631.8 284.5,631.8 287.1,640.3 289.6,648.8 292.2,654.5 294.8,658.7 297.4,648.1 300.0,654.5 302.6,655.2 305.2,655.2 307.8,665.1 310.3,665.1 312.9,654.5 315.5,655.2 318.1,645.9 320.7,646.7 323.3,658.7 325.9,656.6 328.5,656.6 331.0,651.6 333.6,641.7 336.2,641.7 338.8,650.2 341.4,650.9 344.0,660.8 346.6,660.1 349.2,658.7 351.7,658.0 354.3,654.5 356.9,661.6 359.5,661.6 362.1,665.1 364.7,660.1 367.3,655.2 369.9,653.8 372.4,648.1 375.0,651.6 377.6,651.6 380.2,655.2 382.8,652.3 385.4,650.9 388.0,652.3 390.6,647.4 393.1,645.9 395.7,644.5 398.3,660.1 400.9,654.5 403.5,658.0 406.1,653.0 408.7,655.2 411.3,655.9 413.8,646.7 416.4,641.7 419.0,645.2 421.6,645.9 424.2,637.4 426.8,645.9 429.4,650.9 432.0,655.2 434.5,658.0 437.1,661.6 439.7,657.3 442.3,658.0 444.9,660.1 447.5,659.4 450.1,665.8 452.7,659.4 455.2,655.9 457.8,664.4 460.4,667.9 463.0,667.2" fill="none" stroke="#4C78A8" stroke-width="2.2"/>
<polyline points="93.0,649.5 95.6,614.0 98.2,595.1 100.8,576.8 103.3,589.9 105.9,575.0 108.5,558.3 111.1,553.7 113.7,562.8 116.3,562.2 118.9,553.0 121.5,555.1 124.0,548.0 126.6,547.3 129.2,537.4 131.8,543.8 134.4,556.6 137.0,552.3 139.6,542.4 142.2,540.9 144.7,545.2 147.3,539.5 149.9,549.5 152.5,560.8 155.1,570.0 157.7,566.5 160.3,560.8 162.9,572.2 165.4,577.8 168.0,582.1 170.6,579.3 173.2,572.9 175.8,564.4 178.4,562.9 181.0,553.7 183.6,555.1 186.1,558.0 188.7,555.8 191.3,545.2 193.9,533.9 196.5,543.1 199.1,548.0 201.7,561.5 204.3,554.4 206.8,558.7 209.4,555.8 212.0,556.6 214.6,552.3 217.2,559.4 219.8,568.6 222.4,558.0 225.0,571.5 227.5,557.3 230.1,563.6 232.7,563.6 235.3,567.9 237.9,569.3 240.5,572.9 243.1,577.1 245.7,570.7 248.2,573.6 250.8,565.1 253.4,574.3 256.0,567.9 258.6,557.3 261.2,550.9 263.8,543.1 266.4,536.7 268.9,533.1 271.5,539.5 274.1,540.9 276.7,544.5 279.3,533.9 281.9,538.1 284.5,543.1 287.1,548.7 289.6,548.7 292.2,557.3 294.8,567.2 297.4,567.2 300.0,558.0 302.6,556.6 305.2,567.2 307.8,565.8 310.3,565.8 312.9,561.5 315.5,573.6 318.1,570.0 320.7,555.1 323.3,555.8 325.9,569.3 328.5,570.0 331.0,568.6 333.6,570.0 336.2,574.3 338.8,577.1 341.4,580.0 344.0,585.6 346.6,594.2 349.2,589.2 351.7,587.8 354.3,585.6 356.9,587.8 359.5,586.4 362.1,588.5 364.7,587.8 367.3,577.1 369.9,578.5 372.4,585.6 375.0,592.0 377.6,582.1 380.2,582.1 382.8,579.3 385.4,577.1 388.0,572.2 390.6,581.4 393.1,588.5 395.7,586.4 398.3,572.2 400.9,570.0 403.5,579.3 406.1,572.9 408.7,569.3 411.3,564.4 413.8,558.7 416.4,555.1 419.0,550.2 421.6,548.0 424.2,553.7 426.8,555.8 429.4,543.8 432.0,550.2 434.5,555.1 437.1,555.1 439.7,568.6 442.3,568.6 444.9,574.3 447.5,577.8 450.1,586.4 452.7,594.2 455.2,601.2 457.8,604.1 460.4,608.3 463.0,614.7" fill="none" stroke="#F58518" stroke-width="2.2"/>
<polyline points="93.0,649.5 95.6,621.1 98.2,583.3 100.8,560.8 103.3,551.6 105.9,557.3 108.5,548.1 111.1,558.1 113.7,573.0 116.3,570.7 118.9,559.4 121.5,555.8 124.0,552.3 126.6,557.3 129.2,560.8 131.8,550.2 134.4,556.6 137.0,543.8 139.6,533.1 142.2,532.4 144.7,529.6 147.3,534.6 149.9,540.2 152.5,545.2 155.1,538.8 157.7,539.5 160.3,538.1 162.9,544.5 165.4,540.9 168.0,544.5 170.6,550.2 173.2,538.1 175.8,532.4 178.4,524.6 181.0,533.1 183.6,540.2 186.1,534.6 188.7,534.6 191.3,529.6 193.9,517.5 196.5,513.3 199.1,515.4 201.7,521.1 204.3,528.2 206.8,529.6 209.4,528.9 212.0,531.0 214.6,522.5 217.2,517.5 219.8,528.9 222.4,533.9 225.0,533.9 227.5,533.1 230.1,534.6 232.7,538.1 235.3,533.9 237.9,540.9 240.5,543.1 243.1,556.6 245.7,556.6 248.2,547.3 250.8,557.3 253.4,565.1 256.0,553.7 258.6,545.9 261.2,555.1 263.8,551.6 266.4,562.9 268.9,558.7 271.5,548.0 274.1,551.6 276.7,540.9 279.3,528.9 281.9,530.3 284.5,525.3 287.1,523.9 289.6,528.9 292.2,528.9 294.8,533.9 297.4,533.1 300.0,538.1 302.6,539.5 305.2,549.5 307.8,551.6 310.3,555.1 312.9,549.5 315.5,540.2 318.1,538.8 320.7,531.7 323.3,544.5 325.9,547.3 328.5,553.0 331.0,555.1 333.6,559.4 336.2,555.1 338.8,546.6 341.4,543.8 344.0,545.2 346.6,558.7 349.2,551.6 351.7,541.7 354.3,545.2 356.9,531.7 359.5,536.0 362.1,542.4 364.7,558.7 367.3,567.9 369.9,555.8 372.4,541.7 375.0,543.8 377.6,539.5 380.2,528.2 382.8,527.5 385.4,526.8 388.0,526.0 390.6,527.5 393.1,530.3 395.7,536.7 398.3,549.5 400.9,545.2 403.5,563.6 406.1,569.3 408.7,571.5 411.3,569.3 413.8,570.0 416.4,572.2 419.0,564.4 421.6,556.6 424.2,550.2 426.8,560.1 429.4,556.6 432.0,565.8 434.5,569.3 437.1,566.5 439.7,572.2 442.3,564.4 444.9,571.5 447.5,577.1 450.1,577.1 452.7,575.7 455.2,570.0 457.8,565.1 460.4,576.4 463.0,572.9" fill="none" stroke="#54A24B" stroke-width="2.2"/>
<text x="510" y="483" class="title">Congestion frequency</text>
<rect x="558" y="495" width="370" height="265" fill="none" stroke="#cccccc"/>
<line x1="558" y1="760.0" x2="928" y2="760.0" stroke="#eeeeee"/>
<text x="550" y="764.0" text-anchor="end" class="tick">0.33</text>
<line x1="558" y1="671.7" x2="928" y2="671.7" stroke="#eeeeee"/>
<text x="550" y="675.7" text-anchor="end" class="tick">0.40</text>
<line x1="558" y1="583.3" x2="928" y2="583.3" stroke="#eeeeee"/>
<text x="550" y="587.3" text-anchor="end" class="tick">0.46</text>
<line x1="558" y1="495.0" x2="928" y2="495.0" stroke="#eeeeee"/>
<text x="550" y="499.0" text-anchor="end" class="tick">0.52</text>
<text x="558" y="784" class="tick">0</text>
<text x="928" y="784" text-anchor="end" class="tick">143</text>
<polyline points="558.0,513.3 560.6,575.6 563.2,564.0 565.8,596.3 568.3,618.5 570.9,626.3 573.5,635.9 576.1,629.2 578.7,627.1 581.3,639.3 583.9,665.6 586.5,669.7 589.0,687.7 591.6,700.2 594.2,705.7 596.8,703.0 599.4,697.4 602.0,715.4 604.6,729.3 607.2,732.0 609.7,723.7 612.3,723.7 614.9,726.5 617.5,716.8 620.1,712.6 622.7,718.2 625.3,727.9 627.9,716.8 630.4,709.9 633.0,705.7 635.6,703.0 638.2,698.8 640.8,696.0 643.4,697.4 646.0,694.6 648.6,689.1 651.1,683.6 653.7,679.4 656.3,686.3 658.9,679.4 661.5,682.2 664.1,689.1 666.7,686.3 669.3,685.0 671.8,678.0 674.4,678.0 677.0,675.3 679.6,673.9 682.2,665.6 684.8,668.3 687.4,665.6 690.0,668.3 692.5,672.5 695.1,672.5 697.7,678.0 700.3,683.6 702.9,686.3 705.5,698.8 708.1,704.3 710.7,700.2 713.2,694.6 715.8,686.3 718.4,682.2 721.0,680.8 723.6,680.8 726.2,682.2 728.8,690.5 731.4,685.0 733.9,679.4 736.5,678.0 739.1,679.4 741.7,676.7 744.3,678.0 746.9,683.6 749.5,687.7 752.1,687.7 754.6,676.7 757.2,682.2 759.8,690.5 762.4,690.5 765.0,691.9 767.6,703.0 770.2,696.0 772.8,686.3 775.3,686.3 777.9,679.4 780.5,689.1 783.1,690.5 785.7,680.8 788.3,693.3 790.9,691.9 793.5,691.9 796.0,685.0 798.6,685.0 801.2,686.3 803.8,689.1 806.4,678.0 809.0,668.3 811.6,678.0 814.2,676.7 816.7,686.3 819.3,680.8 821.9,689.1 824.5,690.5 827.1,678.0 829.7,679.4 832.3,694.6 834.9,697.4 837.4,693.3 840.0,689.1 842.6,683.6 845.2,682.2 847.8,689.1 850.4,686.3 853.0,698.8 855.6,704.3 858.1,696.0 860.7,701.6 863.3,690.5 865.9,682.2 868.5,680.8 871.1,687.7 873.7,675.3 876.3,678.0 878.8,669.7 881.4,657.3 884.0,654.5 886.6,657.3 889.2,671.1 891.8,680.8 894.4,679.4 897.0,679.4 899.5,691.9 902.1,697.4 904.7,707.1 907.3,721.0 909.9,721.0 912.5,714.0 915.1,718.2 917.7,725.1 920.2,737.6 922.8,737.6 925.4,734.8 928.0,732.0" fill="none" stroke="#4C78A8" stroke-width="2.2"/>
<polyline points="558.0,513.3 560.6,582.5 563.2,605.6 565.8,624.0 568.3,635.1 570.9,631.0 573.5,635.9 576.1,648.3 578.7,661.0 581.3,661.4 583.9,678.0 586.5,679.4 589.0,683.6 591.6,686.3 594.2,679.4 596.8,687.7 599.4,703.0 602.0,700.2 604.6,691.9 607.2,704.3 609.7,705.7 612.3,708.5 614.9,698.8 617.5,696.0 620.1,694.6 622.7,685.0 625.3,672.5 627.9,678.0 630.4,678.0 633.0,668.3 635.6,664.2 638.2,667.0 640.8,685.0 643.4,682.2 646.0,687.7 648.6,707.1 651.1,708.5 653.7,707.1 656.3,716.8 658.9,721.0 661.5,727.9 664.1,727.9 666.7,704.3 669.3,701.6 671.8,693.3 674.4,682.2 677.0,682.2 679.6,680.8 682.2,678.0 684.8,682.2 687.4,673.9 690.0,665.6 692.5,683.6 695.1,689.1 697.7,698.8 700.3,693.3 702.9,687.7 705.5,687.7 708.1,672.5 710.7,668.3 713.2,679.4 715.8,689.1 718.4,676.7 721.0,679.4 723.6,679.4 726.2,683.6 728.8,687.7 731.4,679.4 733.9,680.8 736.5,671.1 739.1,672.5 741.7,682.2 744.3,698.8 746.9,693.3 749.5,690.5 752.1,686.3 754.6,693.3 757.2,689.1 759.8,696.0 762.4,701.6 765.0,694.6 767.6,682.2 770.2,667.0 772.8,664.2 775.3,673.9 777.9,693.3 780.5,693.3 783.1,704.3 785.7,705.7 788.3,709.9 790.9,711.3 793.5,709.9 796.0,716.8 798.6,727.9 801.2,723.7 803.8,721.0 806.4,718.2 809.0,721.0 811.6,730.6 814.2,719.6 816.7,715.4 819.3,719.6 821.9,721.0 824.5,712.6 827.1,704.3 829.7,693.3 832.3,685.0 834.9,673.9 837.4,647.6 840.0,646.2 842.6,642.0 845.2,651.7 847.8,662.8 850.4,673.9 853.0,680.8 855.6,680.8 858.1,687.7 860.7,693.3 863.3,707.1 865.9,716.8 868.5,726.5 871.1,719.6 873.7,714.0 876.3,711.3 878.8,716.8 881.4,716.8 884.0,716.8 886.6,711.3 889.2,711.3 891.8,705.7 894.4,701.6 897.0,694.6 899.5,685.0 902.1,672.5 904.7,667.0 907.3,668.3 909.9,664.2 912.5,672.5 915.1,669.7 917.7,672.5 920.2,682.2 922.8,679.4 925.4,680.8 928.0,686.3" fill="none" stroke="#F58518" stroke-width="2.2"/>
<polyline points="558.0,513.3 560.6,603.3 563.2,605.6 565.8,606.7 568.3,618.5 570.9,621.7 573.5,628.0 576.1,639.6 578.7,647.1 581.3,661.4 583.9,679.4 586.5,682.2 589.0,693.3 591.6,704.3 594.2,709.9 596.8,721.0 599.4,729.3 602.0,726.5 604.6,727.9 607.2,715.4 609.7,718.2 612.3,718.2 614.9,721.0 617.5,715.4 620.1,707.1 622.7,703.0 625.3,696.0 627.9,696.0 630.4,693.3 633.0,694.6 635.6,685.0 638.2,685.0 640.8,675.3 643.4,686.3 646.0,694.6 648.6,690.5 651.1,683.6 653.7,673.9 656.3,676.7 658.9,679.4 661.5,690.5 664.1,683.6 666.7,685.0 669.3,683.6 671.8,678.0 674.4,679.4 677.0,682.2 679.6,694.6 682.2,698.8 684.8,690.5 687.4,691.9 690.0,697.4 692.5,697.4 695.1,691.9 697.7,696.0 700.3,697.4 702.9,696.0 705.5,693.3 708.1,690.5 710.7,696.0 713.2,694.6 715.8,697.4 718.4,698.8 721.0,697.4 723.6,691.9 726.2,685.0 728.8,691.9 731.4,678.0 733.9,671.1 736.5,671.1 739.1,669.7 741.7,660.0 744.3,667.0 746.9,680.8 749.5,690.5 752.1,694.6 754.6,686.3 757.2,697.4 759.8,701.6 762.4,711.3 765.0,712.6 767.6,722.3 770.2,719.6 772.8,700.2 775.3,701.6 777.9,704.3 780.5,712.6 783.1,708.5 785.7,700.2 788.3,678.0 790.9,675.3 793.5,672.5 796.0,676.7 798.6,679.4 801.2,672.5 803.8,672.5 806.4,678.0 809.0,683.6 811.6,691.9 814.2,701.6 816.7,709.9 819.3,703.0 821.9,703.0 824.5,696.0 827.1,691.9 829.7,689.1 832.3,676.7 834.9,675.3 837.4,664.2 840.0,669.7 842.6,665.6 845.2,669.7 847.8,660.0 850.4,671.1 853.0,678.0 855.6,680.8 858.1,690.5 860.7,693.3 863.3,694.6 865.9,697.4 868.5,691.9 871.1,701.6 873.7,707.1 876.3,705.7 878.8,708.5 881.4,705.7 884.0,694.6 886.6,689.1 889.2,704.3 891.8,700.2 894.4,708.5 897.0,696.0 899.5,703.0 902.1,707.1 904.7,705.7 907.3,711.3 909.9,727.9 912.5,726.5 915.1,726.5 917.7,739.0 920.2,727.9 922.8,741.7 925.4,723.7 928.0,736.2" fill="none" stroke="#54A24B" stroke-width="2.2"/>
<text x="975" y="483" class="title">Rider concentration (HHI)</text>
<rect x="1023" y="495" width="370" height="265" fill="none" stroke="#cccccc"/>
<line x1="1023" y1="760.0" x2="1393" y2="760.0" stroke="#eeeeee"/>
<text x="1015" y="764.0" text-anchor="end" class="tick">0.01</text>
<line x1="1023" y1="671.7" x2="1393" y2="671.7" stroke="#eeeeee"/>
<text x="1015" y="675.7" text-anchor="end" class="tick">0.01</text>
<line x1="1023" y1="583.3" x2="1393" y2="583.3" stroke="#eeeeee"/>
<text x="1015" y="587.3" text-anchor="end" class="tick">0.01</text>
<line x1="1023" y1="495.0" x2="1393" y2="495.0" stroke="#eeeeee"/>
<text x="1015" y="499.0" text-anchor="end" class="tick">0.02</text>
<text x="1023" y="784" class="tick">0</text>
<text x="1393" y="784" text-anchor="end" class="tick">143</text>
<polyline points="1023.0,741.7 1025.6,701.0 1028.2,710.7 1030.8,680.7 1033.3,674.3 1035.9,684.6 1038.5,687.7 1041.1,672.7 1043.7,665.5 1046.3,654.5 1048.9,636.5 1051.5,641.7 1054.0,631.9 1056.6,637.7 1059.2,625.5 1061.8,604.5 1064.4,608.0 1067.0,616.2 1069.6,627.8 1072.2,625.5 1074.7,623.1 1077.3,616.2 1079.9,620.8 1082.5,619.1 1085.1,619.1 1087.7,626.6 1090.3,612.7 1092.9,603.4 1095.4,593.5 1098.0,597.6 1100.6,594.7 1103.2,593.5 1105.8,582.4 1108.4,584.8 1111.0,591.2 1113.6,578.4 1116.1,584.2 1118.7,590.0 1121.3,595.2 1123.9,599.3 1126.5,606.3 1129.1,599.3 1131.7,608.6 1134.3,613.3 1136.8,612.1 1139.4,615.6 1142.0,615.0 1144.6,611.5 1147.2,608.0 1149.8,613.8 1152.4,624.3 1155.0,635.3 1157.5,629.5 1160.1,626.0 1162.7,628.4 1165.3,644.1 1167.9,642.3 1170.5,656.3 1173.1,665.0 1175.7,665.0 1178.2,667.3 1180.8,673.7 1183.4,688.8 1186.0,695.8 1188.6,703.4 1191.2,702.2 1193.8,705.1 1196.4,700.5 1198.9,690.0 1201.5,666.7 1204.1,646.4 1206.7,644.1 1209.3,640.6 1211.9,633.0 1214.5,623.1 1217.1,622.0 1219.6,631.3 1222.2,630.1 1224.8,637.7 1227.4,665.6 1230.0,687.7 1232.6,680.7 1235.2,678.4 1237.8,674.9 1240.3,681.9 1242.9,688.8 1245.5,668.5 1248.1,658.0 1250.7,650.5 1253.3,654.5 1255.9,652.2 1258.5,656.9 1261.0,648.7 1263.6,642.9 1266.2,645.8 1268.8,643.5 1271.4,653.9 1274.0,660.3 1276.6,660.3 1279.2,643.5 1281.7,637.1 1284.3,634.2 1286.9,645.8 1289.5,658.6 1292.1,654.5 1294.7,644.1 1297.3,640.6 1299.9,651.0 1302.4,651.0 1305.0,671.4 1307.6,669.1 1310.2,670.8 1312.8,661.5 1315.4,667.3 1318.0,671.4 1320.6,675.5 1323.1,679.5 1325.7,680.7 1328.3,687.1 1330.9,676.6 1333.5,678.4 1336.1,681.3 1338.7,674.3 1341.3,652.8 1343.8,646.4 1346.4,654.5 1349.0,643.5 1351.6,640.6 1354.2,637.7 1356.8,639.4 1359.4,638.8 1362.0,637.1 1364.5,643.5 1367.1,651.6 1369.7,648.1 1372.3,639.4 1374.9,652.8 1377.5,658.0 1380.1,662.1 1382.7,652.8 1385.2,668.5 1387.8,671.4 1390.4,676.6 1393.0,687.1" fill="none" stroke="#4C78A8" stroke-width="2.2"/>
<polyline points="1023.0,660.3 1025.6,683.6 1028.2,666.2 1030.8,626.9 1033.3,624.3 1035.9,598.3 1038.5,601.4 1041.1,574.6 1043.7,588.0 1046.3,589.4 1048.9,592.3 1051.5,566.2 1054.0,558.6 1056.6,554.5 1059.2,547.0 1061.8,560.9 1064.4,560.9 1067.0,572.0 1069.6,567.3 1072.2,560.4 1074.7,549.3 1077.3,569.1 1079.9,573.7 1082.5,573.7 1085.1,572.0 1087.7,558.0 1090.3,542.3 1092.9,545.2 1095.4,552.2 1098.0,555.1 1100.6,556.9 1103.2,530.1 1105.8,513.3 1108.4,530.7 1111.0,538.3 1113.6,558.6 1116.1,563.3 1118.7,571.4 1121.3,545.8 1123.9,548.2 1126.5,552.2 1129.1,580.1 1131.7,591.2 1134.3,584.8 1136.8,572.6 1139.4,554.5 1142.0,573.7 1144.6,559.8 1147.2,560.4 1149.8,560.4 1152.4,540.6 1155.0,540.0 1157.5,546.4 1160.1,551.1 1162.7,551.1 1165.3,559.2 1167.9,540.6 1170.5,544.7 1173.1,555.1 1175.7,565.6 1178.2,570.2 1180.8,542.9 1183.4,544.7 1186.0,548.7 1188.6,559.2 1191.2,548.7 1193.8,558.6 1196.4,585.4 1198.9,581.3 1201.5,578.4 1204.1,593.5 1206.7,613.8 1209.3,611.5 1211.9,602.8 1214.5,599.9 1217.1,609.2 1219.6,605.1 1222.2,583.0 1224.8,570.2 1227.4,563.3 1230.0,547.0 1232.6,539.4 1235.2,530.7 1237.8,528.4 1240.3,523.2 1242.9,517.3 1245.5,525.5 1248.1,534.8 1250.7,551.6 1253.3,534.8 1255.9,530.7 1258.5,527.8 1261.0,547.0 1263.6,556.3 1266.2,547.0 1268.8,555.7 1271.4,559.2 1274.0,557.5 1276.6,565.0 1279.2,575.5 1281.7,595.8 1284.3,611.5 1286.9,591.2 1289.5,584.8 1292.1,608.0 1294.7,602.8 1297.3,595.8 1299.9,584.2 1302.4,578.4 1305.0,597.0 1307.6,584.8 1310.2,579.5 1312.8,583.0 1315.4,574.9 1318.0,564.4 1320.6,563.8 1323.1,551.1 1325.7,571.4 1328.3,558.0 1330.9,537.7 1333.5,538.9 1336.1,544.7 1338.7,546.4 1341.3,566.8 1343.8,567.3 1346.4,576.1 1349.0,587.7 1351.6,569.1 1354.2,581.9 1356.8,585.9 1359.4,584.2 1362.0,577.2 1364.5,576.6 1367.1,560.9 1369.7,560.4 1372.3,549.9 1374.9,535.4 1377.5,530.7 1380.1,526.1 1382.7,520.3 1385.2,534.8 1387.8,527.8 1390.4,533.6 1393.0,528.4" fill="none" stroke="#F58518" stroke-width="2.2"/>
<polyline points="1023.0,660.3 1025.6,619.7 1028.2,617.7 1030.8,621.1 1033.3,625.5 1035.9,629.3 1038.5,609.7 1041.1,623.3 1043.7,634.5 1046.3,631.9 1048.9,624.3 1051.5,617.3 1054.0,608.0 1056.6,610.9 1059.2,615.0 1061.8,597.0 1064.4,612.1 1067.0,608.0 1069.6,598.1 1072.2,608.0 1074.7,613.8 1077.3,634.2 1079.9,663.8 1082.5,656.9 1085.1,641.7 1087.7,640.6 1090.3,629.0 1092.9,626.0 1095.4,624.9 1098.0,601.6 1100.6,601.6 1103.2,577.8 1105.8,565.0 1108.4,570.8 1111.0,573.1 1113.6,587.1 1116.1,601.1 1118.7,601.1 1121.3,615.0 1123.9,618.5 1126.5,627.2 1129.1,645.8 1131.7,629.0 1134.3,630.7 1136.8,650.5 1139.4,656.9 1142.0,658.0 1144.6,642.3 1147.2,640.6 1149.8,660.3 1152.4,652.2 1155.0,639.4 1157.5,639.4 1160.1,624.3 1162.7,606.9 1165.3,597.0 1167.9,595.2 1170.5,584.8 1173.1,551.1 1175.7,548.7 1178.2,529.0 1180.8,537.7 1183.4,529.0 1186.0,526.1 1188.6,530.7 1191.2,541.8 1193.8,535.9 1196.4,552.2 1198.9,585.9 1201.5,575.5 1204.1,591.2 1206.7,572.6 1209.3,593.5 1211.9,601.1 1214.5,607.4 1217.1,608.6 1219.6,616.7 1222.2,623.1 1224.8,599.3 1227.4,597.0 1230.0,596.4 1232.6,616.2 1235.2,616.2 1237.8,622.0 1240.3,610.4 1242.9,604.0 1245.5,607.4 1248.1,608.0 1250.7,619.7 1253.3,629.0 1255.9,634.2 1258.5,610.4 1261.0,608.0 1263.6,610.4 1266.2,610.4 1268.8,616.7 1271.4,614.4 1274.0,615.6 1276.6,627.2 1279.2,620.2 1281.7,610.4 1284.3,626.0 1286.9,598.7 1289.5,585.4 1292.1,595.8 1294.7,598.7 1297.3,590.0 1299.9,579.5 1302.4,576.6 1305.0,573.1 1307.6,555.1 1310.2,555.1 1312.8,583.6 1315.4,591.2 1318.0,591.8 1320.6,594.1 1323.1,595.8 1325.7,594.7 1328.3,590.6 1330.9,597.6 1333.5,622.6 1336.1,637.1 1338.7,629.0 1341.3,624.3 1343.8,609.8 1346.4,596.4 1349.0,585.9 1351.6,594.1 1354.2,593.5 1356.8,585.4 1359.4,592.9 1362.0,584.2 1364.5,570.8 1367.1,573.1 1369.7,581.3 1372.3,584.2 1374.9,592.9 1377.5,584.2 1380.1,584.2 1382.7,595.8 1385.2,583.6 1387.8,585.4 1390.4,605.1 1393.0,608.0" fill="none" stroke="#54A24B" stroke-width="2.2"/>
</svg>