<svg xmlns="http://www.w3.org/2000/svg" width="1400" height="820" viewBox="0 0 1400 820">
<style>
text{font-family:Arial, sans-serif; fill:#222}
.title{font-size:16px; font-weight:700}
.tick{font-size:11px; fill:#666}
.main{font-size:24px; font-weight:700}
</style>
<text x="45" y="42" class="main">Scenario comparison using last 20 time steps</text>
<text x="45" y="108" class="title">Average rider income</text>
<rect x="93" y="120" width="370" height="245" fill="none" stroke="#cccccc"/>
<line x1="93" y1="365.0" x2="463" y2="365.0" stroke="#eeeeee"/>
<text x="85" y="369.0" text-anchor="end" class="tick">0.00</text>
<line x1="93" y1="283.3" x2="463" y2="283.3" stroke="#eeeeee"/>
<text x="85" y="287.3" text-anchor="end" class="tick">2.45</text>
<line x1="93" y1="201.7" x2="463" y2="201.7" stroke="#eeeeee"/>
<text x="85" y="205.7" text-anchor="end" class="tick">4.90</text>
<line x1="93" y1="120.0" x2="463" y2="120.0" stroke="#eeeeee"/>
<text x="85" y="124.0" text-anchor="end" class="tick">7.35</text>
<rect x="115.0" y="164.1" width="94.0" height="200.9" fill="#4C78A8"/>
<text x="162.0" y="159.1" text-anchor="middle" class="tick">6.028</text>
<text x="162.0" y="383" text-anchor="middle" class="tick">Baseline</text>
<rect x="231.0" y="170.8" width="94.0" height="194.2" fill="#F58518"/>
<text x="278.0" y="165.8" text-anchor="middle" class="tick">5.824</text>
<text x="278.0" y="383" text-anchor="middle" class="tick">Demand-only</text>
<rect x="347.0" y="157.4" width="94.0" height="207.6" fill="#54A24B"/>
<text x="394.0" y="152.4" text-anchor="middle" class="tick">6.229</text>
<text x="394.0" y="383" text-anchor="middle" class="tick">Supply-adjusted</text>
<text x="510" y="108" class="title">Idle rate</text>
<rect x="558" y="120" width="370" height="245" fill="none" stroke="#cccccc"/>
<line x1="558" y1="365.0" x2="928" y2="365.0" stroke="#eeeeee"/>
<text x="550" y="369.0" text-anchor="end" class="tick">0.00</text>
<line x1="558" y1="283.3" x2="928" y2="283.3" stroke="#eeeeee"/>
<text x="550" y="287.3" text-anchor="end" class="tick">0.14</text>
<line x1="558" y1="201.7" x2="928" y2="201.7" stroke="#eeeeee"/>
<text x="550" y="205.7" text-anchor="end" class="tick">0.28</text>
<line x1="558" y1="120.0" x2="928" y2="120.0" stroke="#eeeeee"/>
<text x="550" y="124.0" text-anchor="end" class="tick">0.43</text>
<rect x="580.0" y="165.9" width="94.0" height="199.1" fill="#4C78A8"/>
<text x="627.0" y="160.9" text-anchor="middle" class="tick">0.346</text>
<text x="627.0" y="383" text-anchor="middle" class="tick">Baseline</text>
<rect x="696.0" y="157.4" width="94.0" height="207.6" fill="#F58518"/>
<text x="743.0" y="152.4" text-anchor="middle" class="tick">0.360</text>
<text x="743.0" y="383" text-anchor="middle" class="tick">Demand-only</text>
<rect x="812.0" y="181.3" width="94.0" height="183.7" fill="#54A24B"/>
<text x="859.0" y="176.3" text-anchor="middle" class="tick">0.319</text>
<text x="859.0" y="383" text-anchor="middle" class="tick">Supply-adjusted</text>
<text x="975" y="108" class="title">Matching rate</text>
<rect x="1023" y="120" width="370" height="245" fill="none" stroke="#cccccc"/>
<line x1="1023" y1="365.0" x2="1393" y2="365.0" stroke="#eeeeee"/>
<text x="1015" y="369.0" text-anchor="end" class="tick">0.00</text>
<line x1="1023" y1="283.3" x2="1393" y2="283.3" stroke="#eeeeee"/>
<text x="1015" y="287.3" text-anchor="end" class="tick">0.24</text>
<line x1="1023" y1="201.7" x2="1393" y2="201.7" stroke="#eeeeee"/>
<text x="1015" y="205.7" text-anchor="end" class="tick">0.49</text>
<line x1="1023" y1="120.0" x2="1393" y2="120.0" stroke="#eeeeee"/>
<text x="1015" y="124.0" text-anchor="end" class="tick">0.73</text>
<rect x="1045.0" y="174.2" width="94.0" height="190.8" fill="#4C78A8"/>
<text x="1092.0" y="169.2" text-anchor="middle" class="tick">0.572</text>
<text x="1092.0" y="383" text-anchor="middle" class="tick">Baseline</text>
<rect x="1161.0" y="157.4" width="94.0" height="207.6" fill="#F58518"/>
<text x="1208.0" y="152.4" text-anchor="middle" class="tick">0.622</text>
<text x="1208.0" y="383" text-anchor="middle" class="tick">Demand-only</text>
<rect x="1277.0" y="158.9" width="94.0" height="206.1" fill="#54A24B"/>
<text x="1324.0" y="153.9" text-anchor="middle" class="tick">0.618</text>
<text x="1324.0" y="383" text-anchor="middle" class="tick">Supply-adjusted</text>
<text x="45" y="483" class="title">Movement rate</text>
<rect x="93" y="495" width="370" height="245" fill="none" stroke="#cccccc"/>
<line x1="93" y1="740.0" x2="463" y2="740.0" stroke="#eeeeee"/>
<text x="85" y="744.0" text-anchor="end" class="tick">0.00</text>
<line x1="93" y1="658.3" x2="463" y2="658.3" stroke="#eeeeee"/>
<text x="85" y="662.3" text-anchor="end" class="tick">0.23</text>
<line x1="93" y1="576.7" x2="463" y2="576.7" stroke="#eeeeee"/>
<text x="85" y="580.7" text-anchor="end" class="tick">0.46</text>
<line x1="93" y1="495.0" x2="463" y2="495.0" stroke="#eeeeee"/>
<text x="85" y="499.0" text-anchor="end" class="tick">0.69</text>
<rect x="115.0" y="556.2" width="94.0" height="183.8" fill="#4C78A8"/>
<text x="162.0" y="551.2" text-anchor="middle" class="tick">0.514</text>
<text x="162.0" y="758" text-anchor="middle" class="tick">Baseline</text>
<rect x="231.0" y="536.2" width="94.0" height="203.8" fill="#F58518"/>
<text x="278.0" y="531.2" text-anchor="middle" class="tick">0.571</text>
<text x="278.0" y="758" text-anchor="middle" class="tick">Demand-only</text>
<rect x="347.0" y="532.4" width="94.0" height="207.6" fill="#54A24B"/>
<text x="394.0" y="527.4" text-anchor="middle" class="tick">0.581</text>
<text x="394.0" y="758" text-anchor="middle" class="tick">Supply-adjusted</text>
<text x="510" y="483" class="title">Congestion frequency</text>
<rect x="558" y="495" width="370" height="245" fill="none" stroke="#cccccc"/>
<line x1="558" y1="740.0" x2="928" y2="740.0" stroke="#eeeeee"/>
<text x="550" y="744.0" text-anchor="end" class="tick">0.00</text>
<line x1="558" y1="658.3" x2="928" y2="658.3" stroke="#eeeeee"/>
<text x="550" y="662.3" text-anchor="end" class="tick">0.15</text>
<line x1="558" y1="576.7" x2="928" y2="576.7" stroke="#eeeeee"/>
<text x="550" y="580.7" text-anchor="end" class="tick">0.31</text>
<line x1="558" y1="495.0" x2="928" y2="495.0" stroke="#eeeeee"/>
<text x="550" y="499.0" text-anchor="end" class="tick">0.46</text>
<rect x="580.0" y="545.9" width="94.0" height="194.1" fill="#4C78A8"/>
<text x="627.0" y="540.9" text-anchor="middle" class="tick">0.364</text>
<text x="627.0" y="758" text-anchor="middle" class="tick">Baseline</text>
<rect x="696.0" y="532.4" width="94.0" height="207.6" fill="#F58518"/>
<text x="743.0" y="527.4" text-anchor="middle" class="tick">0.390</text>
<text x="743.0" y="758" text-anchor="middle" class="tick">Demand-only</text>
<rect x="812.0" y="548.6" width="94.0" height="191.4" fill="#54A24B"/>
<text x="859.0" y="543.6" text-anchor="middle" class="tick">0.360</text>
<text x="859.0" y="758" text-anchor="middle" class="tick">Supply-adjusted</text>
<text x="975" y="483" class="title">Rider concentration (HHI)</text>
<rect x="1023" y="495" width="370" height="245" fill="none" stroke="#cccccc"/>
<line x1="1023" y1="740.0" x2="1393" y2="740.0" stroke="#eeeeee"/>
<text x="1015" y="744.0" text-anchor="end" class="tick">0.00</text>
<line x1="1023" y1="658.3" x2="1393" y2="658.3" stroke="#eeeeee"/>
<text x="1015" y="662.3" text-anchor="end" class="tick">0.01</text>
<line x1="1023" y1="576.7" x2="1393" y2="576.7" stroke="#eeeeee"/>
<text x="1015" y="580.7" text-anchor="end" class="tick">0.01</text>
<line x1="1023" y1="495.0" x2="1393" y2="495.0" stroke="#eeeeee"/>
<text x="1015" y="499.0" text-anchor="end" class="tick">0.02</text>
<rect x="1045.0" y="547.1" width="94.0" height="192.9" fill="#4C78A8"/>
<text x="1092.0" y="542.1" text-anchor="middle" class="tick">0.014</text>
<text x="1092.0" y="758" text-anchor="middle" class="tick">Baseline</text>
<rect x="1161.0" y="532.4" width="94.0" height="207.6" fill="#F58518"/>
<text x="1208.0" y="527.4" text-anchor="middle" class="tick">0.015</text>
<text x="1208.0" y="758" text-anchor="middle" class="tick">Demand-only</text>
<rect x="1277.0" y="537.8" width="94.0" height="202.2" fill="#54A24B"/>
<text x="1324.0" y="532.8" text-anchor="middle" class="tick">0.015</text>
<text x="1324.0" y="758" text-anchor="middle" class="tick">Supply-adjusted</text>
</svg>