<svg xmlns="http://www.w3.org/2000/svg" width="920" height="580" viewBox="0 0 920 580">
<style>
text{font-family:Arial, sans-serif; fill:#222}
.main{font-size:23px; font-weight:700}
.subtitle{font-size:12px; fill:#666}
.label{font-size:13px; fill:#333}
.tick{font-size:12px; fill:#666}
.legend{font-size:12px; fill:#333}
</style>
<text x="88" y="34" class="main">Heatmap beta sensitivity: Rider concentration (HHI)</text>
<text x="88" y="58" class="subtitle">Mean over final simulation steps; error bars show 95% CI across seeds.</text>
<rect x="88" y="132" width="796" height="370" fill="none" stroke="#cccccc"/>
<line x1="88" y1="502.0" x2="884" y2="502.0" stroke="#eeeeee"/>
<text x="78" y="506.0" text-anchor="end" class="tick">0.014</text>
<line x1="88" y1="409.5" x2="884" y2="409.5" stroke="#eeeeee"/>
<text x="78" y="413.5" text-anchor="end" class="tick">0.015</text>
<line x1="88" y1="317.0" x2="884" y2="317.0" stroke="#eeeeee"/>
<text x="78" y="321.0" text-anchor="end" class="tick">0.015</text>
<line x1="88" y1="224.5" x2="884" y2="224.5" stroke="#eeeeee"/>
<text x="78" y="228.5" text-anchor="end" class="tick">0.015</text>
<line x1="88" y1="132.0" x2="884" y2="132.0" stroke="#eeeeee"/>
<text x="78" y="136.0" text-anchor="end" class="tick">0.015</text>
<line x1="88.0" y1="502" x2="88.0" y2="507" stroke="#999999"/>
<text x="88.0" y="527" text-anchor="middle" class="tick">0</text>
<line x1="287.0" y1="502" x2="287.0" y2="507" stroke="#999999"/>
<text x="287.0" y="527" text-anchor="middle" class="tick">0.5</text>
<line x1="486.0" y1="502" x2="486.0" y2="507" stroke="#999999"/>
<text x="486.0" y="527" text-anchor="middle" class="tick">1</text>
<line x1="685.0" y1="502" x2="685.0" y2="507" stroke="#999999"/>
<text x="685.0" y="527" text-anchor="middle" class="tick">1.5</text>
<line x1="884.0" y1="502" x2="884.0" y2="507" stroke="#999999"/>
<text x="884.0" y="527" text-anchor="middle" class="tick">2</text>
<text x="486.0" y="558" text-anchor="middle" class="label">Heatmap density penalty beta</text>
<text x="24" y="317.0" text-anchor="middle" transform="rotate(-90 24 317.0)" class="label">Rider concentration (HHI)</text>
<polyline points="88.0,238.4 287.0,305.4 486.0,341.1 685.0,350.7 884.0,368.8" fill="none" stroke="#54A24B" stroke-width="2.5"/>
<line x1="88.0" y1="309.0" x2="88.0" y2="167.8" stroke="#54A24B" stroke-width="1.5"/>
<line x1="83.0" y1="309.0" x2="93.0" y2="309.0" stroke="#54A24B" stroke-width="1.5"/>
<line x1="83.0" y1="167.8" x2="93.0" y2="167.8" stroke="#54A24B" stroke-width="1.5"/>
<circle cx="88.0" cy="238.4" r="4.8" fill="#54A24B" stroke="white" stroke-width="1.2"/>
<line x1="287.0" y1="420.2" x2="287.0" y2="190.6" stroke="#54A24B" stroke-width="1.5"/>
<line x1="282.0" y1="420.2" x2="292.0" y2="420.2" stroke="#54A24B" stroke-width="1.5"/>
<line x1="282.0" y1="190.6" x2="292.0" y2="190.6" stroke="#54A24B" stroke-width="1.5"/>
<circle cx="287.0" cy="305.4" r="4.8" fill="#54A24B" stroke="white" stroke-width="1.2"/>
<line x1="486.0" y1="429.8" x2="486.0" y2="252.5" stroke="#54A24B" stroke-width="1.5"/>
<line x1="481.0" y1="429.8" x2="491.0" y2="429.8" stroke="#54A24B" stroke-width="1.5"/>
<line x1="481.0" y1="252.5" x2="491.0" y2="252.5" stroke="#54A24B" stroke-width="1.5"/>
<circle cx="486.0" cy="341.1" r="4.8" fill="#54A24B" stroke="white" stroke-width="1.2"/>
<line x1="685.0" y1="455.2" x2="685.0" y2="246.2" stroke="#54A24B" stroke-width="1.5"/>
<line x1="680.0" y1="455.2" x2="690.0" y2="455.2" stroke="#54A24B" stroke-width="1.5"/>
<line x1="680.0" y1="246.2" x2="690.0" y2="246.2" stroke="#54A24B" stroke-width="1.5"/>
<circle cx="685.0" cy="350.7" r="4.8" fill="#54A24B" stroke="white" stroke-width="1.2"/>
<line x1="884.0" y1="466.2" x2="884.0" y2="271.3" stroke="#54A24B" stroke-width="1.5"/>
<line x1="879.0" y1="466.2" x2="889.0" y2="466.2" stroke="#54A24B" stroke-width="1.5"/>
<line x1="879.0" y1="271.3" x2="889.0" y2="271.3" stroke="#54A24B" stroke-width="1.5"/>
<circle cx="884.0" cy="368.8" r="4.8" fill="#54A24B" stroke="white" stroke-width="1.2"/>
</svg>