<svg xmlns="http://www.w3.org/2000/svg" width="920" height="580" viewBox="0 0 920 580">
<style>
text{font-family:Arial, sans-serif; fill:#222}
.main{font-size:23px; font-weight:700}
.subtitle{font-size:12px; fill:#666}
.label{font-size:13px; fill:#333}
.tick{font-size:12px; fill:#666}
.legend{font-size:12px; fill:#333}
</style>
<text x="88" y="34" class="main">Heatmap beta sensitivity: Average rider income</text>
<text x="88" y="58" class="subtitle">Mean over final simulation steps; error bars show 95% CI across seeds.</text>
<rect x="88" y="132" width="796" height="370" fill="none" stroke="#cccccc"/>
<line x1="88" y1="502.0" x2="884" y2="502.0" stroke="#eeeeee"/>
<text x="78" y="506.0" text-anchor="end" class="tick">5.893</text>
<line x1="88" y1="409.5" x2="884" y2="409.5" stroke="#eeeeee"/>
<text x="78" y="413.5" text-anchor="end" class="tick">5.977</text>
<line x1="88" y1="317.0" x2="884" y2="317.0" stroke="#eeeeee"/>
<text x="78" y="321.0" text-anchor="end" class="tick">6.061</text>
<line x1="88" y1="224.5" x2="884" y2="224.5" stroke="#eeeeee"/>
<text x="78" y="228.5" text-anchor="end" class="tick">6.145</text>
<line x1="88" y1="132.0" x2="884" y2="132.0" stroke="#eeeeee"/>
<text x="78" y="136.0" text-anchor="end" class="tick">6.229</text>
<line x1="88.0" y1="502" x2="88.0" y2="507" stroke="#999999"/>
<text x="88.0" y="527" text-anchor="middle" class="tick">0</text>
<line x1="287.0" y1="502" x2="287.0" y2="507" stroke="#999999"/>
<text x="287.0" y="527" text-anchor="middle" class="tick">0.5</text>
<line x1="486.0" y1="502" x2="486.0" y2="507" stroke="#999999"/>
<text x="486.0" y="527" text-anchor="middle" class="tick">1</text>
<line x1="685.0" y1="502" x2="685.0" y2="507" stroke="#999999"/>
<text x="685.0" y="527" text-anchor="middle" class="tick">1.5</text>
<line x1="884.0" y1="502" x2="884.0" y2="507" stroke="#999999"/>
<text x="884.0" y="527" text-anchor="middle" class="tick">2</text>
<text x="486.0" y="558" text-anchor="middle" class="label">Heatmap density penalty beta</text>
<text x="24" y="317.0" text-anchor="middle" transform="rotate(-90 24 317.0)" class="label">Average rider income</text>
<polyline points="88.0,265.1 287.0,307.7 486.0,359.0 685.0,413.4 884.0,359.7" fill="none" stroke="#54A24B" stroke-width="2.5"/>
<line x1="88.0" y1="362.5" x2="88.0" y2="167.8" stroke="#54A24B" stroke-width="1.5"/>
<line x1="83.0" y1="362.5" x2="93.0" y2="362.5" stroke="#54A24B" stroke-width="1.5"/>
<line x1="83.0" y1="167.8" x2="93.0" y2="167.8" stroke="#54A24B" stroke-width="1.5"/>
<circle cx="88.0" cy="265.1" r="4.8" fill="#54A24B" stroke="white" stroke-width="1.2"/>
<line x1="287.0" y1="358.7" x2="287.0" y2="256.7" stroke="#54A24B" stroke-width="1.5"/>
<line x1="282.0" y1="358.7" x2="292.0" y2="358.7" stroke="#54A24B" stroke-width="1.5"/>
<line x1="282.0" y1="256.7" x2="292.0" y2="256.7" stroke="#54A24B" stroke-width="1.5"/>
<circle cx="287.0" cy="307.7" r="4.8" fill="#54A24B" stroke="white" stroke-width="1.2"/>
<line x1="486.0" y1="426.1" x2="486.0" y2="291.8" stroke="#54A24B" stroke-width="1.5"/>
<line x1="481.0" y1="426.1" x2="491.0" y2="426.1" stroke="#54A24B" stroke-width="1.5"/>
<line x1="481.0" y1="291.8" x2="491.0" y2="291.8" stroke="#54A24B" stroke-width="1.5"/>
<circle cx="486.0" cy="359.0" r="4.8" fill="#54A24B" stroke="white" stroke-width="1.2"/>
<line x1="685.0" y1="466.2" x2="685.0" y2="360.6" stroke="#54A24B" stroke-width="1.5"/>
<line x1="680.0" y1="466.2" x2="690.0" y2="466.2" stroke="#54A24B" stroke-width="1.5"/>
<line x1="680.0" y1="360.6" x2="690.0" y2="360.6" stroke="#54A24B" stroke-width="1.5"/>
<circle cx="685.0" cy="413.4" r="4.8" fill="#54A24B" stroke="white" stroke-width="1.2"/>
<line x1="884.0" y1="463.0" x2="884.0" y2="256.4" stroke="#54A24B" stroke-width="1.5"/>
<line x1="879.0" y1="463.0" x2="889.0" y2="463.0" stroke="#54A24B" stroke-width="1.5"/>
<line x1="879.0" y1="256.4" x2="889.0" y2="256.4" stroke="#54A24B" stroke-width="1.5"/>
<circle cx="884.0" cy="359.7" r="4.8" fill="#54A24B" stroke="white" stroke-width="1.2"/>
</svg>