<svg xmlns="http://www.w3.org/2000/svg" width="920" height="580" viewBox="0 0 920 580">
<style>
text{font-family:Arial, sans-serif; fill:#222}
.main{font-size:23px; font-weight:700}
.subtitle{font-size:12px; fill:#666}
.label{font-size:13px; fill:#333}
.tick{font-size:12px; fill:#666}
.legend{font-size:12px; fill:#333}
</style>
<text x="88" y="34" class="main">Rider supply sensitivity: Congestion frequency</text>
<text x="88" y="58" class="subtitle">Mean over final simulation steps; error bars show 95% CI across seeds.</text>
<line x1="88" y1="92" x2="116" y2="92" stroke="#4C78A8" stroke-width="4"/>
<text x="124" y="96" class="legend">Baseline</text>
<line x1="263" y1="92" x2="291" y2="92" stroke="#F58518" stroke-width="4"/>
<text x="299" y="96" class="legend">Demand-only</text>
<line x1="438" y1="92" x2="466" y2="92" stroke="#54A24B" stroke-width="4"/>
<text x="474" y="96" class="legend">Supply-adjusted</text>
<rect x="88" y="132" width="796" height="370" fill="none" stroke="#cccccc"/>
<line x1="88" y1="502.0" x2="884" y2="502.0" stroke="#eeeeee"/>
<text x="78" y="506.0" text-anchor="end" class="tick">0.188</text>
<line x1="88" y1="409.5" x2="884" y2="409.5" stroke="#eeeeee"/>
<text x="78" y="413.5" text-anchor="end" class="tick">0.284</text>
<line x1="88" y1="317.0" x2="884" y2="317.0" stroke="#eeeeee"/>
<text x="78" y="321.0" text-anchor="end" class="tick">0.381</text>
<line x1="88" y1="224.5" x2="884" y2="224.5" stroke="#eeeeee"/>
<text x="78" y="228.5" text-anchor="end" class="tick">0.477</text>
<line x1="88" y1="132.0" x2="884" y2="132.0" stroke="#eeeeee"/>
<text x="78" y="136.0" text-anchor="end" class="tick">0.573</text>
<line x1="88.0" y1="502" x2="88.0" y2="507" stroke="#999999"/>
<text x="88.0" y="527" text-anchor="middle" class="tick">150</text>
<line x1="287.0" y1="502" x2="287.0" y2="507" stroke="#999999"/>
<text x="287.0" y="527" text-anchor="middle" class="tick">175</text>
<line x1="486.0" y1="502" x2="486.0" y2="507" stroke="#999999"/>
<text x="486.0" y="527" text-anchor="middle" class="tick">200</text>
<line x1="685.0" y1="502" x2="685.0" y2="507" stroke="#999999"/>
<text x="685.0" y="527" text-anchor="middle" class="tick">225</text>
<line x1="884.0" y1="502" x2="884.0" y2="507" stroke="#999999"/>
<text x="884.0" y="527" text-anchor="middle" class="tick">250</text>
<text x="486.0" y="558" text-anchor="middle" class="label">Number of riders</text>
<text x="24" y="317.0" text-anchor="middle" transform="rotate(-90 24 317.0)" class="label">Congestion frequency</text>
<polyline points="88.0,441.4 287.0,379.8 486.0,310.1 685.0,247.9 884.0,190.8" fill="none" stroke="#4C78A8" stroke-width="2.5"/>
<line x1="88.0" y1="447.0" x2="88.0" y2="435.8" stroke="#4C78A8" stroke-width="1.5"/>
<line x1="83.0" y1="447.0" x2="93.0" y2="447.0" stroke="#4C78A8" stroke-width="1.5"/>
<line x1="83.0" y1="435.8" x2="93.0" y2="435.8" stroke="#4C78A8" stroke-width="1.5"/>
<circle cx="88.0" cy="441.4" r="4.8" fill="#4C78A8" stroke="white" stroke-width="1.2"/>
<line x1="287.0" y1="385.9" x2="287.0" y2="373.6" stroke="#4C78A8" stroke-width="1.5"/>
<line x1="282.0" y1="385.9" x2="292.0" y2="385.9" stroke="#4C78A8" stroke-width="1.5"/>
<line x1="282.0" y1="373.6" x2="292.0" y2="373.6" stroke="#4C78A8" stroke-width="1.5"/>
<circle cx="287.0" cy="379.8" r="4.8" fill="#4C78A8" stroke="white" stroke-width="1.2"/>
<line x1="486.0" y1="316.0" x2="486.0" y2="304.3" stroke="#4C78A8" stroke-width="1.5"/>
<line x1="481.0" y1="316.0" x2="491.0" y2="316.0" stroke="#4C78A8" stroke-width="1.5"/>
<line x1="481.0" y1="304.3" x2="491.0" y2="304.3" stroke="#4C78A8" stroke-width="1.5"/>
<circle cx="486.0" cy="310.1" r="4.8" fill="#4C78A8" stroke="white" stroke-width="1.2"/>
<line x1="685.0" y1="254.1" x2="685.0" y2="241.7" stroke="#4C78A8" stroke-width="1.5"/>
<line x1="680.0" y1="254.1" x2="690.0" y2="254.1" stroke="#4C78A8" stroke-width="1.5"/>
<line x1="680.0" y1="241.7" x2="690.0" y2="241.7" stroke="#4C78A8" stroke-width="1.5"/>
<circle cx="685.0" cy="247.9" r="4.8" fill="#4C78A8" stroke="white" stroke-width="1.2"/>
<line x1="884.0" y1="197.9" x2="884.0" y2="183.8" stroke="#4C78A8" stroke-width="1.5"/>
<line x1="879.0" y1="197.9" x2="889.0" y2="197.9" stroke="#4C78A8" stroke-width="1.5"/>
<line x1="879.0" y1="183.8" x2="889.0" y2="183.8" stroke="#4C78A8" stroke-width="1.5"/>
<circle cx="884.0" cy="190.8" r="4.8" fill="#4C78A8" stroke="white" stroke-width="1.2"/>
<polyline points="88.0,450.0 287.0,381.9 486.0,311.6 685.0,233.4 884.0,171.8" fill="none" stroke="#F58518" stroke-width="2.5"/>
<line x1="88.0" y1="458.5" x2="88.0" y2="441.6" stroke="#F58518" stroke-width="1.5"/>
<line x1="83.0" y1="458.5" x2="93.0" y2="458.5" stroke="#F58518" stroke-width="1.5"/>
<line x1="83.0" y1="441.6" x2="93.0" y2="441.6" stroke="#F58518" stroke-width="1.5"/>
<circle cx="88.0" cy="450.0" r="4.8" fill="#F58518" stroke="white" stroke-width="1.2"/>
<line x1="287.0" y1="387.0" x2="287.0" y2="376.8" stroke="#F58518" stroke-width="1.5"/>
<line x1="282.0" y1="387.0" x2="292.0" y2="387.0" stroke="#F58518" stroke-width="1.5"/>
<line x1="282.0" y1="376.8" x2="292.0" y2="376.8" stroke="#F58518" stroke-width="1.5"/>
<circle cx="287.0" cy="381.9" r="4.8" fill="#F58518" stroke="white" stroke-width="1.2"/>
<line x1="486.0" y1="319.5" x2="486.0" y2="303.8" stroke="#F58518" stroke-width="1.5"/>
<line x1="481.0" y1="319.5" x2="491.0" y2="319.5" stroke="#F58518" stroke-width="1.5"/>
<line x1="481.0" y1="303.8" x2="491.0" y2="303.8" stroke="#F58518" stroke-width="1.5"/>
<circle cx="486.0" cy="311.6" r="4.8" fill="#F58518" stroke="white" stroke-width="1.2"/>
<line x1="685.0" y1="237.7" x2="685.0" y2="229.1" stroke="#F58518" stroke-width="1.5"/>
<line x1="680.0" y1="237.7" x2="690.0" y2="237.7" stroke="#F58518" stroke-width="1.5"/>
<line x1="680.0" y1="229.1" x2="690.0" y2="229.1" stroke="#F58518" stroke-width="1.5"/>
<circle cx="685.0" cy="233.4" r="4.8" fill="#F58518" stroke="white" stroke-width="1.2"/>
<line x1="884.0" y1="175.7" x2="884.0" y2="167.8" stroke="#F58518" stroke-width="1.5"/>
<line x1="879.0" y1="175.7" x2="889.0" y2="175.7" stroke="#F58518" stroke-width="1.5"/>
<line x1="879.0" y1="167.8" x2="889.0" y2="167.8" stroke="#F58518" stroke-width="1.5"/>
<circle cx="884.0" cy="171.8" r="4.8" fill="#F58518" stroke="white" stroke-width="1.2"/>
<polyline points="88.0,459.5 287.0,390.5 486.0,316.1 685.0,254.1 884.0,187.6" fill="none" stroke="#54A24B" stroke-width="2.5"/>
<line x1="88.0" y1="466.2" x2="88.0" y2="452.8" stroke="#54A24B" stroke-width="1.5"/>
<line x1="83.0" y1="466.2" x2="93.0" y2="466.2" stroke="#54A24B" stroke-width="1.5"/>
<line x1="83.0" y1="452.8" x2="93.0" y2="452.8" stroke="#54A24B" stroke-width="1.5"/>
<circle cx="88.0" cy="459.5" r="4.8" fill="#54A24B" stroke="white" stroke-width="1.2"/>
<line x1="287.0" y1="398.1" x2="287.0" y2="383.0" stroke="#54A24B" stroke-width="1.5"/>
<line x1="282.0" y1="398.1" x2="292.0" y2="398.1" stroke="#54A24B" stroke-width="1.5"/>
<line x1="282.0" y1="383.0" x2="292.0" y2="383.0" stroke="#54A24B" stroke-width="1.5"/>
<circle cx="287.0" cy="390.5" r="4.8" fill="#54A24B" stroke="white" stroke-width="1.2"/>
<line x1="486.0" y1="322.7" x2="486.0" y2="309.5" stroke="#54A24B" stroke-width="1.5"/>
<line x1="481.0" y1="322.7" x2="491.0" y2="322.7" stroke="#54A24B" stroke-width="1.5"/>
<line x1="481.0" y1="309.5" x2="491.0" y2="309.5" stroke="#54A24B" stroke-width="1.5"/>
<circle cx="486.0" cy="316.1" r="4.8" fill="#54A24B" stroke="white" stroke-width="1.2"/>
<line x1="685.0" y1="263.1" x2="685.0" y2="245.2" stroke="#54A24B" stroke-width="1.5"/>
<line x1="680.0" y1="263.1" x2="690.0" y2="263.1" stroke="#54A24B" stroke-width="1.5"/>
<line x1="680.0" y1="245.2" x2="690.0" y2="245.2" stroke="#54A24B" stroke-width="1.5"/>
<circle cx="685.0" cy="254.1" r="4.8" fill="#54A24B" stroke="white" stroke-width="1.2"/>
<line x1="884.0" y1="193.8" x2="884.0" y2="181.3" stroke="#54A24B" stroke-width="1.5"/>
<line x1="879.0" y1="193.8" x2="889.0" y2="193.8" stroke="#54A24B" stroke-width="1.5"/>
<line x1="879.0" y1="181.3" x2="889.0" y2="181.3" stroke="#54A24B" stroke-width="1.5"/>
<circle cx="884.0" cy="187.6" r="4.8" fill="#54A24B" stroke="white" stroke-width="1.2"/>
</svg>