<svg xmlns="http://www.w3.org/2000/svg" width="920" height="580" viewBox="0 0 920 580">
<style>
text{font-family:Arial, sans-serif; fill:#222}
.main{font-size:23px; font-weight:700}
.subtitle{font-size:12px; fill:#666}
.label{font-size:13px; fill:#333}
.tick{font-size:12px; fill:#666}
.legend{font-size:12px; fill:#333}
</style>
<text x="88" y="34" class="main">Rider supply sensitivity: Average rider income</text>
<text x="88" y="58" class="subtitle">Mean over final simulation steps; error bars show 95% CI across seeds.</text>
<line x1="88" y1="92" x2="116" y2="92" stroke="#4C78A8" stroke-width="4"/>
<text x="124" y="96" class="legend">Baseline</text>
<line x1="263" y1="92" x2="291" y2="92" stroke="#F58518" stroke-width="4"/>
<text x="299" y="96" class="legend">Demand-only</text>
<line x1="438" y1="92" x2="466" y2="92" stroke="#54A24B" stroke-width="4"/>
<text x="474" y="96" class="legend">Supply-adjusted</text>
<rect x="88" y="132" width="796" height="370" fill="none" stroke="#cccccc"/>
<line x1="88" y1="502.0" x2="884" y2="502.0" stroke="#eeeeee"/>
<text x="78" y="506.0" text-anchor="end" class="tick">4.684</text>
<line x1="88" y1="409.5" x2="884" y2="409.5" stroke="#eeeeee"/>
<text x="78" y="413.5" text-anchor="end" class="tick">5.338</text>
<line x1="88" y1="317.0" x2="884" y2="317.0" stroke="#eeeeee"/>
<text x="78" y="321.0" text-anchor="end" class="tick">5.992</text>
<line x1="88" y1="224.5" x2="884" y2="224.5" stroke="#eeeeee"/>
<text x="78" y="228.5" text-anchor="end" class="tick">6.646</text>
<line x1="88" y1="132.0" x2="884" y2="132.0" stroke="#eeeeee"/>
<text x="78" y="136.0" text-anchor="end" class="tick">7.3</text>
<line x1="88.0" y1="502" x2="88.0" y2="507" stroke="#999999"/>
<text x="88.0" y="527" text-anchor="middle" class="tick">150</text>
<line x1="287.0" y1="502" x2="287.0" y2="507" stroke="#999999"/>
<text x="287.0" y="527" text-anchor="middle" class="tick">175</text>
<line x1="486.0" y1="502" x2="486.0" y2="507" stroke="#999999"/>
<text x="486.0" y="527" text-anchor="middle" class="tick">200</text>
<line x1="685.0" y1="502" x2="685.0" y2="507" stroke="#999999"/>
<text x="685.0" y="527" text-anchor="middle" class="tick">225</text>
<line x1="884.0" y1="502" x2="884.0" y2="507" stroke="#999999"/>
<text x="884.0" y="527" text-anchor="middle" class="tick">250</text>
<text x="486.0" y="558" text-anchor="middle" class="label">Number of riders</text>
<text x="24" y="317.0" text-anchor="middle" transform="rotate(-90 24 317.0)" class="label">Average rider income</text>
<polyline points="88.0,213.6 287.0,273.7 486.0,343.0 685.0,404.9 884.0,459.0" fill="none" stroke="#4C78A8" stroke-width="2.5"/>
<line x1="88.0" y1="220.3" x2="88.0" y2="207.0" stroke="#4C78A8" stroke-width="1.5"/>
<line x1="83.0" y1="220.3" x2="93.0" y2="220.3" stroke="#4C78A8" stroke-width="1.5"/>
<line x1="83.0" y1="207.0" x2="93.0" y2="207.0" stroke="#4C78A8" stroke-width="1.5"/>
<circle cx="88.0" cy="213.6" r="4.8" fill="#4C78A8" stroke="white" stroke-width="1.2"/>
<line x1="287.0" y1="281.2" x2="287.0" y2="266.3" stroke="#4C78A8" stroke-width="1.5"/>
<line x1="282.0" y1="281.2" x2="292.0" y2="281.2" stroke="#4C78A8" stroke-width="1.5"/>
<line x1="282.0" y1="266.3" x2="292.0" y2="266.3" stroke="#4C78A8" stroke-width="1.5"/>
<circle cx="287.0" cy="273.7" r="4.8" fill="#4C78A8" stroke="white" stroke-width="1.2"/>
<line x1="486.0" y1="354.1" x2="486.0" y2="331.9" stroke="#4C78A8" stroke-width="1.5"/>
<line x1="481.0" y1="354.1" x2="491.0" y2="354.1" stroke="#4C78A8" stroke-width="1.5"/>
<line x1="481.0" y1="331.9" x2="491.0" y2="331.9" stroke="#4C78A8" stroke-width="1.5"/>
<circle cx="486.0" cy="343.0" r="4.8" fill="#4C78A8" stroke="white" stroke-width="1.2"/>
<line x1="685.0" y1="414.4" x2="685.0" y2="395.4" stroke="#4C78A8" stroke-width="1.5"/>
<line x1="680.0" y1="414.4" x2="690.0" y2="414.4" stroke="#4C78A8" stroke-width="1.5"/>
<line x1="680.0" y1="395.4" x2="690.0" y2="395.4" stroke="#4C78A8" stroke-width="1.5"/>
<circle cx="685.0" cy="404.9" r="4.8" fill="#4C78A8" stroke="white" stroke-width="1.2"/>
<line x1="884.0" y1="466.2" x2="884.0" y2="451.9" stroke="#4C78A8" stroke-width="1.5"/>
<line x1="879.0" y1="466.2" x2="889.0" y2="466.2" stroke="#4C78A8" stroke-width="1.5"/>
<line x1="879.0" y1="451.9" x2="889.0" y2="451.9" stroke="#4C78A8" stroke-width="1.5"/>
<circle cx="884.0" cy="459.0" r="4.8" fill="#4C78A8" stroke="white" stroke-width="1.2"/>
<polyline points="88.0,182.5 287.0,252.0 486.0,321.1 685.0,396.4 884.0,450.7" fill="none" stroke="#F58518" stroke-width="2.5"/>
<line x1="88.0" y1="196.2" x2="88.0" y2="168.7" stroke="#F58518" stroke-width="1.5"/>
<line x1="83.0" y1="196.2" x2="93.0" y2="196.2" stroke="#F58518" stroke-width="1.5"/>
<line x1="83.0" y1="168.7" x2="93.0" y2="168.7" stroke="#F58518" stroke-width="1.5"/>
<circle cx="88.0" cy="182.5" r="4.8" fill="#F58518" stroke="white" stroke-width="1.2"/>
<line x1="287.0" y1="259.4" x2="287.0" y2="244.5" stroke="#F58518" stroke-width="1.5"/>
<line x1="282.0" y1="259.4" x2="292.0" y2="259.4" stroke="#F58518" stroke-width="1.5"/>
<line x1="282.0" y1="244.5" x2="292.0" y2="244.5" stroke="#F58518" stroke-width="1.5"/>
<circle cx="287.0" cy="252.0" r="4.8" fill="#F58518" stroke="white" stroke-width="1.2"/>
<line x1="486.0" y1="332.1" x2="486.0" y2="310.0" stroke="#F58518" stroke-width="1.5"/>
<line x1="481.0" y1="332.1" x2="491.0" y2="332.1" stroke="#F58518" stroke-width="1.5"/>
<line x1="481.0" y1="310.0" x2="491.0" y2="310.0" stroke="#F58518" stroke-width="1.5"/>
<circle cx="486.0" cy="321.1" r="4.8" fill="#F58518" stroke="white" stroke-width="1.2"/>
<line x1="685.0" y1="402.8" x2="685.0" y2="390.1" stroke="#F58518" stroke-width="1.5"/>
<line x1="680.0" y1="402.8" x2="690.0" y2="402.8" stroke="#F58518" stroke-width="1.5"/>
<line x1="680.0" y1="390.1" x2="690.0" y2="390.1" stroke="#F58518" stroke-width="1.5"/>
<circle cx="685.0" cy="396.4" r="4.8" fill="#F58518" stroke="white" stroke-width="1.2"/>
<line x1="884.0" y1="459.6" x2="884.0" y2="441.9" stroke="#F58518" stroke-width="1.5"/>
<line x1="879.0" y1="459.6" x2="889.0" y2="459.6" stroke="#F58518" stroke-width="1.5"/>
<line x1="879.0" y1="441.9" x2="889.0" y2="441.9" stroke="#F58518" stroke-width="1.5"/>
<circle cx="884.0" cy="450.7" r="4.8" fill="#F58518" stroke="white" stroke-width="1.2"/>
<polyline points="88.0,174.5 287.0,243.8 486.0,312.7 685.0,380.1 884.0,439.5" fill="none" stroke="#54A24B" stroke-width="2.5"/>
<line x1="88.0" y1="181.2" x2="88.0" y2="167.8" stroke="#54A24B" stroke-width="1.5"/>
<line x1="83.0" y1="181.2" x2="93.0" y2="181.2" stroke="#54A24B" stroke-width="1.5"/>
<line x1="83.0" y1="167.8" x2="93.0" y2="167.8" stroke="#54A24B" stroke-width="1.5"/>
<circle cx="88.0" cy="174.5" r="4.8" fill="#54A24B" stroke="white" stroke-width="1.2"/>
<line x1="287.0" y1="256.2" x2="287.0" y2="231.5" stroke="#54A24B" stroke-width="1.5"/>
<line x1="282.0" y1="256.2" x2="292.0" y2="256.2" stroke="#54A24B" stroke-width="1.5"/>
<line x1="282.0" y1="231.5" x2="292.0" y2="231.5" stroke="#54A24B" stroke-width="1.5"/>
<circle cx="287.0" cy="243.8" r="4.8" fill="#54A24B" stroke="white" stroke-width="1.2"/>
<line x1="486.0" y1="321.3" x2="486.0" y2="304.0" stroke="#54A24B" stroke-width="1.5"/>
<line x1="481.0" y1="321.3" x2="491.0" y2="321.3" stroke="#54A24B" stroke-width="1.5"/>
<line x1="481.0" y1="304.0" x2="491.0" y2="304.0" stroke="#54A24B" stroke-width="1.5"/>
<circle cx="486.0" cy="312.7" r="4.8" fill="#54A24B" stroke="white" stroke-width="1.2"/>
<line x1="685.0" y1="388.4" x2="685.0" y2="371.8" stroke="#54A24B" stroke-width="1.5"/>
<line x1="680.0" y1="388.4" x2="690.0" y2="388.4" stroke="#54A24B" stroke-width="1.5"/>
<line x1="680.0" y1="371.8" x2="690.0" y2="371.8" stroke="#54A24B" stroke-width="1.5"/>
<circle cx="685.0" cy="380.1" r="4.8" fill="#54A24B" stroke="white" stroke-width="1.2"/>
<line x1="884.0" y1="447.8" x2="884.0" y2="431.2" stroke="#54A24B" stroke-width="1.5"/>
<line x1="879.0" y1="447.8" x2="889.0" y2="447.8" stroke="#54A24B" stroke-width="1.5"/>
<line x1="879.0" y1="431.2" x2="889.0" y2="431.2" stroke="#54A24B" stroke-width="1.5"/>
<circle cx="884.0" cy="439.5" r="4.8" fill="#54A24B" stroke="white" stroke-width="1.2"/>
</svg>