<svg xmlns="http://www.w3.org/2000/svg" width="920" height="580" viewBox="0 0 920 580">
<style>
text{font-family:Arial, sans-serif; fill:#222}
.main{font-size:23px; font-weight:700}
.subtitle{font-size:12px; fill:#666}
.label{font-size:13px; fill:#333}
.tick{font-size:12px; fill:#666}
.legend{font-size:12px; fill:#333}
</style>
<text x="88" y="34" class="main">Rider supply sensitivity: Rider concentration (HHI)</text>
<text x="88" y="58" class="subtitle">Mean over final simulation steps; error bars show 95% CI across seeds.</text>
<line x1="88" y1="92" x2="116" y2="92" stroke="#4C78A8" stroke-width="4"/>
<text x="124" y="96" class="legend">Baseline</text>
<line x1="263" y1="92" x2="291" y2="92" stroke="#F58518" stroke-width="4"/>
<text x="299" y="96" class="legend">Demand-only</text>
<line x1="438" y1="92" x2="466" y2="92" stroke="#54A24B" stroke-width="4"/>
<text x="474" y="96" class="legend">Supply-adjusted</text>
<rect x="88" y="132" width="796" height="370" fill="none" stroke="#cccccc"/>
<line x1="88" y1="502.0" x2="884" y2="502.0" stroke="#eeeeee"/>
<text x="78" y="506.0" text-anchor="end" class="tick">0.013</text>
<line x1="88" y1="409.5" x2="884" y2="409.5" stroke="#eeeeee"/>
<text x="78" y="413.5" text-anchor="end" class="tick">0.014</text>
<line x1="88" y1="317.0" x2="884" y2="317.0" stroke="#eeeeee"/>
<text x="78" y="321.0" text-anchor="end" class="tick">0.015</text>
<line x1="88" y1="224.5" x2="884" y2="224.5" stroke="#eeeeee"/>
<text x="78" y="228.5" text-anchor="end" class="tick">0.016</text>
<line x1="88" y1="132.0" x2="884" y2="132.0" stroke="#eeeeee"/>
<text x="78" y="136.0" text-anchor="end" class="tick">0.017</text>
<line x1="88.0" y1="502" x2="88.0" y2="507" stroke="#999999"/>
<text x="88.0" y="527" text-anchor="middle" class="tick">150</text>
<line x1="287.0" y1="502" x2="287.0" y2="507" stroke="#999999"/>
<text x="287.0" y="527" text-anchor="middle" class="tick">175</text>
<line x1="486.0" y1="502" x2="486.0" y2="507" stroke="#999999"/>
<text x="486.0" y="527" text-anchor="middle" class="tick">200</text>
<line x1="685.0" y1="502" x2="685.0" y2="507" stroke="#999999"/>
<text x="685.0" y="527" text-anchor="middle" class="tick">225</text>
<line x1="884.0" y1="502" x2="884.0" y2="507" stroke="#999999"/>
<text x="884.0" y="527" text-anchor="middle" class="tick">250</text>
<text x="486.0" y="558" text-anchor="middle" class="label">Number of riders</text>
<text x="24" y="317.0" text-anchor="middle" transform="rotate(-90 24 317.0)" class="label">Rider concentration (HHI)</text>
<polyline points="88.0,234.3 287.0,321.6 486.0,387.8 685.0,420.7 884.0,459.3" fill="none" stroke="#4C78A8" stroke-width="2.5"/>
<line x1="88.0" y1="259.6" x2="88.0" y2="208.9" stroke="#4C78A8" stroke-width="1.5"/>
<line x1="83.0" y1="259.6" x2="93.0" y2="259.6" stroke="#4C78A8" stroke-width="1.5"/>
<line x1="83.0" y1="208.9" x2="93.0" y2="208.9" stroke="#4C78A8" stroke-width="1.5"/>
<circle cx="88.0" cy="234.3" r="4.8" fill="#4C78A8" stroke="white" stroke-width="1.2"/>
<line x1="287.0" y1="336.3" x2="287.0" y2="306.9" stroke="#4C78A8" stroke-width="1.5"/>
<line x1="282.0" y1="336.3" x2="292.0" y2="336.3" stroke="#4C78A8" stroke-width="1.5"/>
<line x1="282.0" y1="306.9" x2="292.0" y2="306.9" stroke="#4C78A8" stroke-width="1.5"/>
<circle cx="287.0" cy="321.6" r="4.8" fill="#4C78A8" stroke="white" stroke-width="1.2"/>
<line x1="486.0" y1="398.4" x2="486.0" y2="377.2" stroke="#4C78A8" stroke-width="1.5"/>
<line x1="481.0" y1="398.4" x2="491.0" y2="398.4" stroke="#4C78A8" stroke-width="1.5"/>
<line x1="481.0" y1="377.2" x2="491.0" y2="377.2" stroke="#4C78A8" stroke-width="1.5"/>
<circle cx="486.0" cy="387.8" r="4.8" fill="#4C78A8" stroke="white" stroke-width="1.2"/>
<line x1="685.0" y1="427.2" x2="685.0" y2="414.3" stroke="#4C78A8" stroke-width="1.5"/>
<line x1="680.0" y1="427.2" x2="690.0" y2="427.2" stroke="#4C78A8" stroke-width="1.5"/>
<line x1="680.0" y1="414.3" x2="690.0" y2="414.3" stroke="#4C78A8" stroke-width="1.5"/>
<circle cx="685.0" cy="420.7" r="4.8" fill="#4C78A8" stroke="white" stroke-width="1.2"/>
<line x1="884.0" y1="466.2" x2="884.0" y2="452.4" stroke="#4C78A8" stroke-width="1.5"/>
<line x1="879.0" y1="466.2" x2="889.0" y2="466.2" stroke="#4C78A8" stroke-width="1.5"/>
<line x1="879.0" y1="452.4" x2="889.0" y2="452.4" stroke="#4C78A8" stroke-width="1.5"/>
<circle cx="884.0" cy="459.3" r="4.8" fill="#4C78A8" stroke="white" stroke-width="1.2"/>
<polyline points="88.0,180.0 287.0,255.9 486.0,305.2 685.0,359.2 884.0,393.8" fill="none" stroke="#F58518" stroke-width="2.5"/>
<line x1="88.0" y1="192.2" x2="88.0" y2="167.8" stroke="#F58518" stroke-width="1.5"/>
<line x1="83.0" y1="192.2" x2="93.0" y2="192.2" stroke="#F58518" stroke-width="1.5"/>
<line x1="83.0" y1="167.8" x2="93.0" y2="167.8" stroke="#F58518" stroke-width="1.5"/>
<circle cx="88.0" cy="180.0" r="4.8" fill="#F58518" stroke="white" stroke-width="1.2"/>
<line x1="287.0" y1="264.9" x2="287.0" y2="246.8" stroke="#F58518" stroke-width="1.5"/>
<line x1="282.0" y1="264.9" x2="292.0" y2="264.9" stroke="#F58518" stroke-width="1.5"/>
<line x1="282.0" y1="246.8" x2="292.0" y2="246.8" stroke="#F58518" stroke-width="1.5"/>
<circle cx="287.0" cy="255.9" r="4.8" fill="#F58518" stroke="white" stroke-width="1.2"/>
<line x1="486.0" y1="318.4" x2="486.0" y2="292.1" stroke="#F58518" stroke-width="1.5"/>
<line x1="481.0" y1="318.4" x2="491.0" y2="318.4" stroke="#F58518" stroke-width="1.5"/>
<line x1="481.0" y1="292.1" x2="491.0" y2="292.1" stroke="#F58518" stroke-width="1.5"/>
<circle cx="486.0" cy="305.2" r="4.8" fill="#F58518" stroke="white" stroke-width="1.2"/>
<line x1="685.0" y1="375.5" x2="685.0" y2="343.0" stroke="#F58518" stroke-width="1.5"/>
<line x1="680.0" y1="375.5" x2="690.0" y2="375.5" stroke="#F58518" stroke-width="1.5"/>
<line x1="680.0" y1="343.0" x2="690.0" y2="343.0" stroke="#F58518" stroke-width="1.5"/>
<circle cx="685.0" cy="359.2" r="4.8" fill="#F58518" stroke="white" stroke-width="1.2"/>
<line x1="884.0" y1="401.3" x2="884.0" y2="386.3" stroke="#F58518" stroke-width="1.5"/>
<line x1="879.0" y1="401.3" x2="889.0" y2="401.3" stroke="#F58518" stroke-width="1.5"/>
<line x1="879.0" y1="386.3" x2="889.0" y2="386.3" stroke="#F58518" stroke-width="1.5"/>
<circle cx="884.0" cy="393.8" r="4.8" fill="#F58518" stroke="white" stroke-width="1.2"/>
<polyline points="88.0,208.8 287.0,287.1 486.0,343.0 685.0,385.5 884.0,418.7" fill="none" stroke="#54A24B" stroke-width="2.5"/>
<line x1="88.0" y1="220.0" x2="88.0" y2="197.5" stroke="#54A24B" stroke-width="1.5"/>
<line x1="83.0" y1="220.0" x2="93.0" y2="220.0" stroke="#54A24B" stroke-width="1.5"/>
<line x1="83.0" y1="197.5" x2="93.0" y2="197.5" stroke="#54A24B" stroke-width="1.5"/>
<circle cx="88.0" cy="208.8" r="4.8" fill="#54A24B" stroke="white" stroke-width="1.2"/>
<line x1="287.0" y1="295.2" x2="287.0" y2="279.0" stroke="#54A24B" stroke-width="1.5"/>
<line x1="282.0" y1="295.2" x2="292.0" y2="295.2" stroke="#54A24B" stroke-width="1.5"/>
<line x1="282.0" y1="279.0" x2="292.0" y2="279.0" stroke="#54A24B" stroke-width="1.5"/>
<circle cx="287.0" cy="287.1" r="4.8" fill="#54A24B" stroke="white" stroke-width="1.2"/>
<line x1="486.0" y1="353.7" x2="486.0" y2="332.3" stroke="#54A24B" stroke-width="1.5"/>
<line x1="481.0" y1="353.7" x2="491.0" y2="353.7" stroke="#54A24B" stroke-width="1.5"/>
<line x1="481.0" y1="332.3" x2="491.0" y2="332.3" stroke="#54A24B" stroke-width="1.5"/>
<circle cx="486.0" cy="343.0" r="4.8" fill="#54A24B" stroke="white" stroke-width="1.2"/>
<line x1="685.0" y1="397.8" x2="685.0" y2="373.1" stroke="#54A24B" stroke-width="1.5"/>
<line x1="680.0" y1="397.8" x2="690.0" y2="397.8" stroke="#54A24B" stroke-width="1.5"/>
<line x1="680.0" y1="373.1" x2="690.0" y2="373.1" stroke="#54A24B" stroke-width="1.5"/>
<circle cx="685.0" cy="385.5" r="4.8" fill="#54A24B" stroke="white" stroke-width="1.2"/>
<line x1="884.0" y1="427.0" x2="884.0" y2="410.3" stroke="#54A24B" stroke-width="1.5"/>
<line x1="879.0" y1="427.0" x2="889.0" y2="427.0" stroke="#54A24B" stroke-width="1.5"/>
<line x1="879.0" y1="410.3" x2="889.0" y2="410.3" stroke="#54A24B" stroke-width="1.5"/>
<circle cx="884.0" cy="418.7" r="4.8" fill="#54A24B" stroke="white" stroke-width="1.2"/>
</svg>